<svg width="39" height="39" viewBox="0 0 39 39" fill="none" xmlns="http://www.w3.org/2000/svg">
<circle cx="19.5" cy="19.5" r="19.5" fill="white"/>
<path d="M33.5694 15.2218C33.3162 14.295 32.7711 13.478 32.0174 12.8959C31.2638 12.3137 30.3431 11.9985 29.3964 11.9985C28.4496 11.9985 27.529 12.3137 26.7753 12.8959C26.0217 13.478 25.4766 14.295 25.2234 15.2218C24.5166 15.462 23.9021 15.9218 23.4666 16.5363C23.0312 17.1508 22.7969 17.8887 22.7969 18.6459C22.7969 19.403 23.0312 20.141 23.4666 20.7555C23.9021 21.37 24.5166 21.8298 25.2234 22.07C25.4766 22.9968 26.0217 23.8138 26.7753 24.3959C27.529 24.9781 28.4496 25.2932 29.3964 25.2932C30.3431 25.2932 31.2638 24.9781 32.0174 24.3959C32.7711 23.8138 33.3162 22.9968 33.5694 22.07C34.2778 21.8309 34.8942 21.3712 35.331 20.7562C35.7679 20.1411 36.0029 19.4019 36.0029 18.6435C36.0029 17.8851 35.7679 17.1459 35.331 16.5308C34.8942 15.9158 34.2778 15.4561 33.5694 15.217V15.2218Z" fill="#FF007F"/>
<path d="M22.8887 28.0191C22.1669 27.9815 21.4743 27.7176 20.9062 27.2637C20.338 26.8098 19.9222 26.1883 19.716 25.4845H12.9375C12.7478 26.1937 12.3337 26.8197 11.759 27.2661C11.1844 27.7124 10.4811 27.9542 9.75775 27.9542C9.03439 27.9542 8.33116 27.7124 7.7565 27.2661C7.18184 26.8197 6.76772 26.1937 6.57802 25.4845H6.47916C6.10123 25.4787 5.73024 25.3805 5.39758 25.1982C5.06492 25.0159 4.78038 24.7548 4.56801 24.4372C4.13362 23.8096 3.93796 23.0433 4.01727 22.2804L4.29498 19.368C4.32968 18.8315 4.5148 18.3164 4.82842 17.8833C5.14205 17.4503 5.5711 17.1175 6.06492 16.9242L9.96255 15.6091L13.074 10.253C13.2733 9.87877 13.5673 9.56538 13.9256 9.34513C14.2839 9.12488 14.6935 9.00574 15.1123 9H24.3621C24.8872 9.01827 25.3931 9.20548 25.8068 9.53466C26.2205 9.86385 26.5206 10.318 26.6639 10.8316L28.6033 16.6373C28.7132 16.9786 28.7703 17.3351 28.7728 17.6942V24.5759C28.7729 24.7044 28.7475 24.8316 28.6982 24.9499C28.6489 25.0682 28.5766 25.1752 28.4856 25.2645C28.2998 25.4417 28.0531 25.5378 27.7984 25.5323L26.0755 25.4845C25.8678 26.1901 25.4498 26.8129 24.879 27.2668C24.3082 27.7208 23.6128 27.9837 22.8887 28.0191V28.0191ZM12.2126 23.586H20.4362C20.6612 23.5828 20.8798 23.6617 21.0525 23.8082C21.2252 23.9547 21.3406 24.1591 21.3777 24.3846C21.5377 25.365 22.1967 26.1062 22.9028 26.1062C23.6089 26.1062 24.2679 25.3841 24.4327 24.3846C24.4698 24.1591 24.5851 23.9547 24.7578 23.8082C24.9305 23.6617 25.1492 23.5828 25.3741 23.586H26.9134V17.6942C26.9132 17.5314 26.8861 17.3697 26.8334 17.216L24.9034 11.4294C24.7951 11.1138 24.588 10.8986 24.3856 10.8986H15.1076C15.0189 10.9105 14.9345 10.9447 14.8622 10.9981C14.7898 11.0516 14.7318 11.1226 14.6933 11.2046L11.5018 16.6995C11.3207 17.0061 11.039 17.2381 10.7063 17.3546L6.65332 18.7272C6.51187 18.8067 6.39376 18.9231 6.31105 19.0642C6.22835 19.2054 6.18402 19.3663 6.1826 19.5306L5.90017 22.4525C5.86798 22.7516 5.93957 23.0527 6.10258 23.3038C6.14337 23.3734 6.19942 23.4325 6.26638 23.4764C6.33333 23.5204 6.40938 23.5481 6.48858 23.5573H7.31235C7.53732 23.5541 7.75596 23.633 7.92866 23.7795C8.10136 23.926 8.2167 24.1304 8.25381 24.3559C8.41385 25.3363 9.07287 26.0775 9.77896 26.0775C10.485 26.0775 11.1441 25.3363 11.3088 24.3559C11.3477 24.1395 11.4589 23.9434 11.6235 23.8005C11.7881 23.6577 11.9962 23.5768 12.2126 23.5716V23.586Z" fill="#1A1A34"/>
</svg>
