<svg width="39" height="39" viewBox="0 0 39 39" fill="none" xmlns="http://www.w3.org/2000/svg">
<circle cx="19.5" cy="19.5" r="19.5" fill="white"/>
<g clip-path="url(#clip0_10014_11446)">
<path d="M28.8231 28.7508L20.5024 18.5819C20.4367 18.5002 20.3552 18.4345 20.2635 18.3895C20.1718 18.3445 20.0721 18.3211 19.9712 18.321C19.8703 18.3211 19.7705 18.3445 19.6789 18.3895C19.5872 18.4345 19.5057 18.5002 19.44 18.5819L11.171 28.7508C11.0831 28.8607 11.0263 28.9949 11.0072 29.1379C10.988 29.2809 11.0073 29.4268 11.0629 29.5585C11.1197 29.6895 11.2106 29.8003 11.3248 29.8777C11.439 29.9551 11.5716 29.9958 11.7069 29.995H28.2919C28.4276 29.9966 28.5608 29.9561 28.6753 29.8784C28.7899 29.8007 28.8808 29.6892 28.9371 29.5574C28.9933 29.4257 29.0125 29.2793 28.9923 29.1361C28.9721 28.9929 28.9133 28.859 28.8231 28.7508Z" fill="#FF007F"/>
<path d="M19.993 23.5534C18.6439 23.5534 17.3251 23.1265 16.2034 22.3266C15.0817 21.5268 14.2074 20.3899 13.6911 19.0598C13.1748 17.7297 13.0397 16.2661 13.3029 14.854C13.5661 13.442 14.2158 12.145 15.1697 11.1269C16.1237 10.1089 17.3391 9.41562 18.6622 9.13474C19.9854 8.85387 21.3569 8.99803 22.6033 9.54898C23.8497 10.0999 24.915 11.0329 25.6645 12.23C26.414 13.4271 26.8141 14.8344 26.8141 16.2741C26.8116 18.2039 26.0921 20.0539 24.8135 21.4184C23.5348 22.783 21.8013 23.5508 19.993 23.5534ZM19.993 11.0116C19.0156 11.0116 18.0602 11.321 17.2476 11.9005C16.435 12.4801 15.8017 13.3039 15.4279 14.2676C15.0541 15.2313 14.9565 16.2917 15.1475 17.3147C15.3386 18.3376 15.8096 19.277 16.501 20.0142C17.1925 20.7514 18.0733 21.2532 19.032 21.4561C19.9907 21.6589 20.9843 21.5538 21.887 21.154C22.7897 20.7541 23.561 20.0775 24.1033 19.2098C24.6456 18.3421 24.9346 17.3222 24.9337 16.2792C24.9324 14.8812 24.4115 13.5409 23.4852 12.5524C22.5589 11.5638 21.303 11.0079 19.993 11.0066V11.0116Z" fill="#1A1A34"/>
</g>
<defs>
<clipPath id="clip0_10014_11446">
<rect width="18" height="21" fill="white" transform="translate(11 9)"/>
</clipPath>
</defs>
</svg>
