<svg width="120" height="50" viewBox="0 0 120 50" fill="none" xmlns="http://www.w3.org/2000/svg">
<rect width="120" height="50" rx="25" fill="white"/>
<path d="M72.112 31H74.352V19.8H72.128V27.448L67.344 19.8H65.056V31H67.28V23.416L72.112 31ZM75.8063 26.84C75.8063 29.368 77.6943 31.208 80.3023 31.208C82.9263 31.208 84.8142 29.368 84.8142 26.84C84.8142 24.312 82.8623 22.424 80.3023 22.424C77.7582 22.424 75.8063 24.296 75.8063 26.84ZM78.0143 26.84C78.0143 25.4 78.9743 24.376 80.3023 24.376C81.6303 24.376 82.6063 25.416 82.6063 26.84C82.6063 28.264 81.6303 29.256 80.3023 29.256C78.9903 29.256 78.0143 28.264 78.0143 26.84Z" fill="black"/>
<g>
<path d="M25.7502 30.0446H30.2839C30.7414 30.0296 31.1928 29.9357 31.6183 29.7668C31.9858 29.905 32.2884 30.1757 32.4665 30.5257C32.5277 30.7515 32.5364 30.9883 32.4916 31.2179C32.4469 31.4476 32.3501 31.6639 32.2085 31.8501C32.0002 32.2023 31.7819 32.5495 31.5786 32.8819C30.8048 34.1269 30.1302 35.2033 30.1302 36.1755C30.1302 38.9682 31.4694 39.4543 32.2681 39.4989C33.6173 39.5634 33.7066 38.3829 33.7562 37.748C33.733 37.4337 33.7983 37.1192 33.9446 36.8402C34.3437 36.4599 34.7679 36.1069 35.2145 35.7837C36.5406 34.8368 37.7392 33.7231 38.781 32.4702C39.6664 31.2426 40.6753 30.1091 41.7919 29.0872H43.6123V30.0148C43.6123 30.1464 43.6646 30.2725 43.7576 30.3656C43.8506 30.4586 43.9768 30.5108 44.1083 30.5108H50.9685C51.1 30.5108 51.2262 30.4586 51.3192 30.3656C51.4122 30.2725 51.4645 30.1464 51.4645 30.0148V16.498C51.4645 16.3664 51.4122 16.2402 51.3192 16.1472C51.2262 16.0542 51.1 16.0019 50.9685 16.0019H44.1331C44.0016 16.0019 43.8754 16.0542 43.7824 16.1472C43.6894 16.2402 43.6371 16.3664 43.6371 16.498V18.2142C42.8087 18.2688 40.9833 18.2142 39.9913 17.0684C39.0984 16.0317 36.896 15.7539 34.0389 15.7539C33.156 15.7539 32.2135 15.7787 31.2264 15.8184H31.1073L30.0458 15.868C29.2869 15.9027 28.5925 15.9374 28.0022 15.9523C27.4864 15.9818 27.0025 16.2113 26.6533 16.592C26.3041 16.9727 26.1171 17.4746 26.1321 17.991C26.1314 18.4612 26.2906 18.9178 26.5835 19.2856C26.2552 19.4885 25.9858 19.7738 25.8021 20.1133C25.6185 20.4527 25.527 20.8344 25.5369 21.2202C25.5359 21.6956 25.6776 22.1604 25.9437 22.5545C25.5668 22.7308 25.2484 23.0114 25.026 23.363C24.8092 23.7182 24.6974 24.1275 24.7036 24.5436C24.7037 24.9928 24.8385 25.4316 25.0905 25.8035C24.5847 25.9484 24.1491 26.2727 23.8652 26.7157C23.5813 27.1587 23.4687 27.69 23.5484 28.2101C23.6281 28.7302 23.8946 29.2034 24.2981 29.541C24.7016 29.8787 25.2143 30.0577 25.7403 30.0446H25.7502ZM44.649 17.0138H50.4774V29.5039H44.649V17.0138ZM33.1758 16.7807C35.7601 16.7311 38.4536 16.8749 39.1877 17.7331C40.4526 19.2212 42.5855 19.2956 43.6173 19.2212V28.0356H41.7075C40.8097 28.0356 37.9823 31.8005 37.9526 31.8402C36.9652 33.0131 35.8336 34.0564 34.5845 34.9454C34.092 35.3047 33.6262 35.6992 33.1907 36.1259C32.8619 36.5724 32.7004 37.1201 32.7343 37.6735C32.6946 38.4622 32.65 38.4672 32.3474 38.4474C31.3901 38.3928 31.1867 37.1726 31.1867 36.1557C31.4063 35.1535 31.8469 34.2129 32.4764 33.4027C32.6847 33.0654 32.903 32.7182 33.1163 32.3511C33.3459 32.0327 33.4967 31.6643 33.5562 31.2763C33.6157 30.8882 33.5822 30.4916 33.4585 30.119C33.2688 29.6835 32.9503 29.3165 32.5458 29.0674C32.8322 28.6795 32.9599 28.197 32.903 27.7182C32.7684 27.154 32.4637 26.6449 32.03 26.2599C32.1761 26.1706 32.3095 26.0622 32.4268 25.9374C32.6127 25.7303 32.753 25.4863 32.8384 25.2214C32.9239 24.9564 32.9526 24.6765 32.9228 24.3997C32.8073 23.8376 32.5317 23.3208 32.1292 22.9116C32.2384 22.838 32.3383 22.7514 32.4268 22.6537C32.6155 22.4393 32.7571 22.1877 32.8425 21.9151C32.9279 21.6426 32.9553 21.3551 32.9228 21.0714C32.8388 20.6133 32.6542 20.1796 32.3821 19.8015C32.6837 19.7013 32.9573 19.5314 33.1808 19.3055C33.3518 19.1141 33.4808 18.8889 33.5594 18.6446C33.638 18.4002 33.6645 18.1421 33.6371 17.8868C33.5775 17.4882 33.4283 17.1083 33.2006 16.7757L33.1758 16.7807ZM28.0022 16.9741C28.5974 16.9741 29.3068 16.9295 30.0756 16.8898L31.1917 16.8402C31.5227 16.826 31.8474 16.9337 32.1044 17.1428C32.3587 17.3559 32.5234 17.657 32.5657 17.986C32.581 18.0965 32.5725 18.2089 32.5408 18.3159C32.5092 18.4228 32.4551 18.5217 32.3821 18.6061C32.1048 18.8429 31.7547 18.9777 31.3901 18.988H28.0468C27.8041 18.9539 27.5818 18.8332 27.421 18.6481C27.2602 18.4631 27.1717 18.2262 27.1717 17.9811C27.1717 17.7359 27.2602 17.4991 27.421 17.314C27.5818 17.129 27.8041 17.0083 28.0468 16.9741H28.0022ZM27.3871 20.0743L30.6262 20.0198C31.6183 19.9404 31.8266 21.2152 31.8316 21.2152C31.8484 21.3503 31.8373 21.4873 31.7989 21.6179C31.7605 21.7484 31.6956 21.8697 31.6083 21.9741C31.3778 22.1867 31.0826 22.3159 30.77 22.3412C30.6913 22.328 30.6117 22.3198 30.5319 22.3164H30.3931L28.0468 22.3462H27.4268C26.9605 22.3462 26.5687 21.8253 26.5687 21.2103C26.5401 20.9497 26.6104 20.6878 26.7656 20.4766C26.9209 20.2653 27.1497 20.12 27.407 20.0694L27.3871 20.0743ZM26.7075 23.4027H28.0915H30.7006C30.7419 23.4063 30.7833 23.4063 30.8246 23.4027C31.0856 23.491 31.3195 23.6447 31.5042 23.8491C31.6844 24.0565 31.806 24.3082 31.8564 24.5783C31.8724 24.7045 31.8622 24.8327 31.8263 24.9547C31.7905 25.0768 31.7298 25.1902 31.648 25.2876C31.3546 25.5452 30.9816 25.6941 30.5915 25.7093C30.4923 25.7093 30.3931 25.6993 30.2939 25.6795H30.145L27.3375 25.7093H26.7571C26.4841 25.6688 26.2347 25.5317 26.0544 25.3227C25.874 25.1137 25.7748 24.8469 25.7748 24.5709C25.7748 24.2949 25.874 24.028 26.0544 23.8191C26.2347 23.6101 26.4841 23.4729 26.7571 23.4325L26.7075 23.4027ZM25.7155 26.736H27.3722H30.6609C30.952 26.8 31.2196 26.9439 31.4334 27.1516C31.6472 27.3593 31.7988 27.6225 31.8712 27.9116C31.8861 28.0251 31.8765 28.1405 31.8431 28.25C31.8098 28.3595 31.7534 28.4606 31.6778 28.5466C31.585 28.6441 31.4759 28.7247 31.3554 28.7847C31.0201 28.938 30.6574 29.0224 30.2889 29.0327H25.7502C25.4369 29.0417 25.1324 28.9277 24.902 28.7152C24.7891 28.61 24.6981 28.4836 24.6343 28.3431C24.5704 28.2027 24.535 28.051 24.53 27.8968C24.5378 27.5889 24.6666 27.2965 24.8885 27.0829C25.1104 26.8694 25.4075 26.7519 25.7155 26.7559V26.736Z" fill="#1A1A34"/>
<path d="M32.3968 39.9947H32.2628C31.4741 39.95 29.6487 39.4986 29.6487 36.1752C29.6487 35.0691 30.3382 33.953 31.1368 32.6633L31.1666 32.6187C31.37 32.2863 31.5833 31.949 31.7916 31.5969L31.8214 31.5473C31.9122 31.4288 31.9761 31.2921 32.0086 31.1464C32.0412 31.0008 32.0416 30.8498 32.0099 30.704C31.9101 30.5347 31.766 30.3958 31.5932 30.3022C31.1726 30.4461 30.7329 30.5263 30.2886 30.5403H25.7499C25.1515 30.5602 24.564 30.3772 24.0828 30.021C23.6015 29.6649 23.2549 29.1564 23.0992 28.5783C22.9434 28.0002 22.9878 27.3864 23.225 26.8367C23.4621 26.2869 23.8783 25.8336 24.4057 25.5502C24.2787 25.2349 24.2131 24.8982 24.2122 24.5582C24.2039 24.0506 24.3417 23.5512 24.6091 23.1197C24.7822 22.8336 25.0097 22.5842 25.2787 22.3856C25.1162 22.022 25.0333 21.628 25.0356 21.2298C25.0276 20.8447 25.1017 20.4624 25.2531 20.1083C25.4045 19.7542 25.6297 19.4364 25.9136 19.1762C25.7283 18.812 25.6314 18.4093 25.6309 18.0006C25.617 17.3577 25.8534 16.7345 26.2902 16.2626C26.727 15.7906 27.3301 15.5067 27.9722 15.4709C28.5674 15.4709 29.2618 15.4163 30.0158 15.3816L31.0823 15.3369H31.2311C32.3075 15.2923 33.2152 15.2725 34.0337 15.2725C37.5555 15.2725 39.4454 15.7189 40.3432 16.7606C41.0476 17.584 42.3273 17.7526 43.116 17.7526V16.5274C43.116 16.2643 43.2205 16.012 43.4066 15.8259C43.5926 15.6399 43.845 15.5354 44.1081 15.5354H50.9682C51.2313 15.5354 51.4836 15.6399 51.6697 15.8259C51.8557 16.012 51.9602 16.2643 51.9602 16.5274V30.0443C51.9602 30.3074 51.8557 30.5597 51.6697 30.7458C51.4836 30.9318 51.2313 31.0363 50.9682 31.0363H44.1279C43.8648 31.0363 43.6125 30.9318 43.4264 30.7458C43.2404 30.5597 43.1358 30.3074 43.1358 30.0443V29.6127H41.985C40.949 30.5782 40.0103 31.6432 39.1825 32.7923C38.1082 34.087 36.8711 35.2374 35.5019 36.2149C35.1004 36.5101 34.7162 36.8281 34.3511 37.1673C34.2712 37.348 34.2371 37.5457 34.2519 37.7427V37.8022C34.1676 39.2506 33.5476 39.9947 32.3968 39.9947ZM32.6349 32.1028C32.4265 32.455 32.2182 32.7923 32.0148 33.0949L31.9851 33.1395C31.2658 34.3052 30.6408 35.3072 30.6408 36.1157C30.6408 37.3657 30.9285 38.8687 32.3124 38.9431C32.9722 38.9778 33.2003 38.6703 33.2599 37.6881C33.2369 37.2923 33.3227 36.8978 33.5079 36.5473C33.5336 36.4991 33.5671 36.4555 33.6071 36.4183C34.0294 36.0447 34.4751 35.6984 34.9414 35.3816C36.2336 34.4599 37.4007 33.3744 38.4136 32.1524C39.3134 30.9078 40.3371 29.7577 41.4692 28.7199C41.5631 28.6388 41.6824 28.5932 41.8065 28.5909H43.6269C43.7585 28.5909 43.8846 28.6432 43.9777 28.7362C44.0707 28.8292 44.1229 28.9554 44.1229 29.0869V30.0145H51.0029V16.4778H44.1229V18.204C44.1232 18.3306 44.075 18.4524 43.9883 18.5446C43.9017 18.6369 43.783 18.6924 43.6567 18.7C42.62 18.7645 40.7152 18.6752 39.6041 17.3855C38.7212 16.3588 36.0079 16.2397 34.0485 16.2397C33.2599 16.2397 32.3472 16.2397 31.2608 16.3042H31.1616L30.0803 16.3538C29.3164 16.3885 28.5922 16.4233 28.0267 16.4381C27.6434 16.4636 27.2848 16.6363 27.026 16.9202C26.7671 17.204 26.628 17.5769 26.6378 17.9609C26.641 18.32 26.7612 18.6683 26.9801 18.953C27.0232 19.0077 27.0543 19.0709 27.0714 19.1384C27.0885 19.2059 27.0912 19.2763 27.0793 19.3449C27.0673 19.414 27.0408 19.4799 27.0014 19.538C26.9621 19.5962 26.9109 19.6453 26.8511 19.6822C26.59 19.8364 26.3747 20.0574 26.2274 20.3224C26.08 20.5874 26.006 20.887 26.0128 21.1901C26.0085 21.5702 26.121 21.9425 26.3353 22.2566C26.3743 22.3168 26.4006 22.3844 26.4126 22.4552C26.4245 22.5261 26.4218 22.5986 26.4047 22.6683C26.3856 22.7374 26.3518 22.8016 26.3056 22.8564C26.2594 22.9112 26.2018 22.9553 26.1368 22.9857C25.8482 23.1244 25.6055 23.343 25.4376 23.6156C25.2696 23.8882 25.1835 24.2033 25.1894 24.5234C25.1875 24.8772 25.293 25.2231 25.492 25.5155C25.5367 25.5807 25.5652 25.6557 25.5751 25.7342C25.585 25.8126 25.5759 25.8923 25.5488 25.9666C25.5216 26.0409 25.477 26.1076 25.4188 26.1611C25.3606 26.2147 25.2905 26.2535 25.2142 26.2744C24.9282 26.3475 24.6674 26.4967 24.4595 26.7063C24.2517 26.9159 24.1045 27.1779 24.0338 27.4644C23.963 27.751 23.9713 28.0514 24.0578 28.3336C24.1442 28.6158 24.3056 28.8693 24.5247 29.0671C24.6843 29.2276 24.8746 29.3543 25.0843 29.4396C25.2939 29.5248 25.5187 29.5668 25.745 29.5631H30.2787C30.6736 29.5508 31.0633 29.4685 31.4295 29.3201C31.5444 29.2757 31.6717 29.2757 31.7866 29.3201C32.2749 29.499 32.6796 29.8524 32.9226 30.3121C32.9385 30.3435 32.9501 30.3769 32.9573 30.4113C33.0309 30.6997 33.0401 31.0007 32.9844 31.293C32.9287 31.5853 32.8094 31.8618 32.6349 32.1028V32.1028ZM32.4612 38.9679H32.3124C31.7073 38.9332 30.6854 38.5264 30.6854 36.1802C30.6808 36.144 30.6808 36.1073 30.6854 36.0711C30.9226 35.0082 31.388 34.0096 32.0495 33.1445L32.0991 33.0651C32.2926 32.7625 32.486 32.45 32.6745 32.1276C32.864 31.868 32.9889 31.5671 33.0389 31.2497C33.0889 30.9322 33.0626 30.6075 32.9622 30.3022C32.8127 29.9756 32.5692 29.701 32.2628 29.5135C32.2042 29.4777 32.1536 29.4301 32.1144 29.3738C32.0751 29.3174 32.0479 29.2535 32.0347 29.1861C32.0214 29.1193 32.022 29.0505 32.0365 28.9839C32.051 28.9174 32.0791 28.8545 32.119 28.7992C32.3257 28.5215 32.4212 28.1765 32.3868 27.832C32.2775 27.3758 32.0338 26.9628 31.6874 26.6465C31.6301 26.5952 31.5855 26.5314 31.5571 26.4599C31.5287 26.3885 31.5173 26.3114 31.5237 26.2348C31.5307 26.1582 31.5554 26.0842 31.5959 26.0188C31.6363 25.9534 31.6914 25.8982 31.7569 25.8578C31.8657 25.7894 31.9657 25.7077 32.0545 25.6147C32.1881 25.461 32.2877 25.2808 32.3467 25.0859C32.4056 24.891 32.4227 24.6858 32.3968 24.4838C32.3024 24.0301 32.0764 23.6142 31.747 23.2883C31.6953 23.2368 31.6556 23.1746 31.6307 23.106C31.6059 23.0374 31.5964 22.9642 31.6031 22.8915C31.61 22.8192 31.6327 22.7493 31.6695 22.6867C31.7064 22.6242 31.7565 22.5705 31.8164 22.5294C31.8958 22.4747 31.969 22.4115 32.0347 22.3409C32.1743 22.1793 32.279 21.9906 32.3422 21.7866C32.4054 21.5825 32.4257 21.3676 32.4017 21.1554C32.3282 20.7812 32.1742 20.4274 31.9503 20.1187C31.905 20.0567 31.8746 19.9849 31.8617 19.9092C31.8488 19.8334 31.8537 19.7557 31.8759 19.6822C31.8985 19.6082 31.9381 19.5405 31.9915 19.4845C32.0449 19.4285 32.1106 19.3858 32.1835 19.3598C32.4143 19.2778 32.6231 19.1437 32.7936 18.9679C32.9149 18.8292 33.0059 18.6666 33.0605 18.4906C33.1152 18.3146 33.1324 18.1291 33.111 17.9461C33.0651 17.6289 32.9462 17.3266 32.7638 17.0631C32.7149 16.9908 32.6859 16.9069 32.6798 16.8198C32.6737 16.7327 32.6907 16.6455 32.7291 16.5671C32.7702 16.4877 32.832 16.4209 32.908 16.3737C32.984 16.3266 33.0713 16.3009 33.1606 16.2993C36.8561 16.2248 38.8303 16.577 39.5595 17.4203C40.6656 18.7149 42.5356 18.8141 43.5872 18.7596C43.6543 18.7559 43.7214 18.7658 43.7845 18.7889C43.8476 18.8119 43.9054 18.8475 43.9543 18.8935C44.0033 18.9402 44.0422 18.9964 44.0686 19.0586C44.0951 19.1209 44.1085 19.1879 44.1081 19.2556V28.0701C44.1081 28.2016 44.0558 28.3278 43.9628 28.4208C43.8698 28.5139 43.7436 28.5661 43.612 28.5661H41.7023C41.2063 28.6653 39.3561 30.7983 38.3491 32.1673C37.3323 33.3813 36.1656 34.4613 34.8769 35.3816C34.4176 35.7186 33.9817 36.0865 33.5724 36.4828C33.3288 36.832 33.21 37.2531 33.235 37.6782V37.7328C33.2053 38.2834 33.1755 38.6008 32.9374 38.8141C32.8031 38.9224 32.6335 38.9771 32.4612 38.9679V38.9679ZM31.6924 36.2298C31.6924 36.7258 31.7668 37.7179 32.2331 37.9362C32.2331 37.8667 32.2331 37.7873 32.2331 37.6931C32.1999 37.0346 32.3944 36.3849 32.7837 35.8528C32.7991 35.8291 32.8174 35.8075 32.8382 35.7883C33.2922 35.3512 33.778 34.9483 34.2916 34.583C35.5052 33.7154 36.6065 32.7007 37.5704 31.5621C37.5704 31.5621 40.4374 27.5939 41.7023 27.5939H43.116V19.7467C41.861 19.7467 40.0108 19.454 38.8055 18.0552C38.5476 17.7526 37.5704 17.2665 34.0089 17.2665H33.9493C34.0085 17.4479 34.0533 17.6336 34.0833 17.8221C34.1203 18.1489 34.0882 18.4798 33.9891 18.7935C33.89 19.1071 33.726 19.3963 33.5079 19.6425C33.3583 19.7905 33.1918 19.9204 33.0118 20.0294C33.1689 20.3423 33.2792 20.6765 33.3392 21.0215C33.386 21.3751 33.3576 21.7346 33.2559 22.0765C33.1541 22.4184 32.9814 22.735 32.7489 23.0056C33.0386 23.405 33.2398 23.8616 33.3392 24.3449C33.3889 24.699 33.3614 25.0596 33.2587 25.4021C33.1559 25.7445 32.9804 26.0607 32.744 26.329L32.7043 26.3687C33.0151 26.7389 33.2418 27.1722 33.369 27.6385C33.3714 27.6583 33.3714 27.6783 33.369 27.698C33.4237 28.1316 33.3549 28.5717 33.1706 28.9679C33.4795 29.2413 33.7235 29.5802 33.8849 29.96C34.0448 30.41 34.094 30.892 34.0284 31.3651C33.9627 31.8382 33.7842 32.2886 33.5079 32.6782C33.3343 32.9758 33.1358 33.2933 32.9424 33.6058L32.8829 33.705L32.8531 33.7496C32.2878 34.4824 31.8869 35.3283 31.6775 36.2298H31.6924ZM50.487 29.9996H44.6438C44.5122 29.9996 44.3861 29.9474 44.293 29.8544C44.2 29.7613 44.1477 29.6352 44.1477 29.5036V17.0135C44.1477 16.882 44.2 16.7558 44.293 16.6628C44.3861 16.5698 44.5122 16.5175 44.6438 16.5175H50.4722C50.6037 16.5175 50.7299 16.5698 50.8229 16.6628C50.9159 16.7558 50.9682 16.882 50.9682 17.0135V29.5036C50.9682 29.6352 50.9159 29.7613 50.8229 29.8544C50.7299 29.9474 50.6037 29.9996 50.4722 29.9996H50.487ZM45.1547 29.0076H49.991V17.5096H45.1547V29.0076ZM25.7053 29.5036C25.3757 29.5151 25.0503 29.4262 24.7724 29.2486C24.4945 29.071 24.2771 28.8132 24.1491 28.5092C24.021 28.2053 23.9884 27.8696 24.0555 27.5467C24.1226 27.2237 24.2862 26.9288 24.5247 26.701C24.6781 26.5484 24.8611 26.4288 25.0624 26.3494C25.2637 26.2701 25.4791 26.2328 25.6954 26.2397H27.3472H30.5962C30.6469 26.2298 30.6992 26.2298 30.7499 26.2397C31.1229 26.3309 31.4652 26.5192 31.742 26.7854C32.023 27.0555 32.2224 27.3993 32.3174 27.7774C32.3198 27.7972 32.3198 27.8172 32.3174 27.8369C32.3418 28.0213 32.3266 28.2087 32.2727 28.3866C32.2188 28.5645 32.1275 28.7289 32.0049 28.8687C31.8732 29.0043 31.7209 29.1182 31.5535 29.206L31.5039 29.2308C31.1103 29.4141 30.683 29.5137 30.2489 29.5234H25.6904L25.7053 29.5036ZM25.7053 27.2219C25.6163 27.2173 25.5273 27.2312 25.4439 27.2628C25.3605 27.2944 25.2846 27.3429 25.221 27.4053C25.1573 27.4676 25.1072 27.5426 25.074 27.6253C25.0407 27.708 25.025 27.7967 25.0277 27.8858C25.0305 27.9749 25.0517 28.0624 25.09 28.1429C25.1283 28.2234 25.1828 28.2951 25.2502 28.3534C25.3176 28.4118 25.3964 28.4555 25.4816 28.4818C25.5667 28.5082 25.6564 28.5166 25.745 28.5066H30.2886C30.5758 28.4968 30.8585 28.4328 31.122 28.3181V28.3181C31.19 28.2837 31.252 28.2385 31.3055 28.1842C31.35 28.1262 31.3713 28.0536 31.365 27.9808C31.315 27.7916 31.2138 27.62 31.0724 27.4848C30.9328 27.3532 30.7621 27.2594 30.5763 27.2119H30.5069H25.6805H25.6557L25.7053 27.2219ZM26.7668 26.1653H26.7023C26.4414 26.13 26.1925 26.0334 25.9761 25.8834C25.7597 25.7334 25.5819 25.5342 25.4573 25.3022C25.3351 25.0729 25.2689 24.8179 25.2641 24.5581C25.2594 24.2983 25.3162 24.041 25.4298 23.8074C25.5435 23.5737 25.7109 23.3703 25.9183 23.2137C26.1256 23.0571 26.3671 22.9518 26.623 22.9064H26.7321H28.116H30.7995C30.8684 22.8941 30.939 22.8941 31.0079 22.9064C31.354 23.0204 31.6638 23.2241 31.9057 23.4967C32.1452 23.7694 32.3063 24.102 32.372 24.459C32.4025 24.6584 32.3899 24.8621 32.3352 25.0563C32.2804 25.2506 32.1847 25.4308 32.0545 25.5849L32.0049 25.6346C31.6261 25.9672 31.1446 26.1598 30.6408 26.1802H30.5416C30.4615 26.1643 30.3802 26.156 30.2985 26.1554L26.7668 26.1653ZM26.8015 25.1733H27.3521L30.3283 25.1435L30.6458 25.1683C30.8943 25.1505 31.1315 25.057 31.3253 24.9004C31.3862 24.8139 31.4127 24.7078 31.3997 24.6028C31.3622 24.4294 31.2801 24.2687 31.1616 24.1365C31.0602 24.0194 30.9328 23.9277 30.7896 23.8687H30.735H26.7668C26.6679 23.886 26.5746 23.9265 26.4944 23.9868C26.4142 24.0472 26.3495 24.1257 26.3055 24.2159C26.2586 24.3086 26.2347 24.4112 26.2356 24.5151C26.2366 24.619 26.2625 24.7211 26.3111 24.8129C26.3596 24.9048 26.4295 24.9836 26.5149 25.0428C26.6002 25.1021 26.6985 25.14 26.8015 25.1534V25.1733ZM27.4364 22.832C27.044 22.7979 26.681 22.6096 26.4272 22.3083C26.1733 22.0071 26.0493 21.6174 26.0823 21.2248C26.0506 20.8446 26.16 20.4661 26.3897 20.1614C26.6193 19.8568 26.9531 19.6473 27.3273 19.573H27.4116L30.6507 19.5185C31.4543 19.454 32.1388 20.0492 32.362 21.076V21.1455C32.388 21.3483 32.3719 21.5542 32.3147 21.7505C32.2575 21.9468 32.1605 22.1292 32.0297 22.2863L31.9851 22.3359C31.6708 22.624 31.2692 22.7986 30.8442 22.832C30.8046 22.8368 30.7647 22.8368 30.7251 22.832C30.6641 22.8271 30.6027 22.8271 30.5416 22.832H27.4364ZM27.4761 20.5552C27.3501 20.5906 27.2404 20.669 27.1661 20.7768C27.0918 20.8846 27.0576 21.0151 27.0694 21.1455C27.0721 21.1636 27.0721 21.1819 27.0694 21.2C27.0694 21.5721 27.2876 21.8399 27.4315 21.8399H28.0962L30.5763 21.8102H30.8243C30.9974 21.7899 31.1601 21.7172 31.2906 21.6018C31.3597 21.5072 31.3931 21.3913 31.3849 21.2744C31.3204 21.0165 31.1269 20.4461 30.7103 20.4857H30.6458L27.4761 20.5552ZM28.0565 19.4739H27.997C27.6481 19.4136 27.3315 19.2329 27.1021 18.9633C26.8727 18.6937 26.7452 18.3521 26.7417 17.9982C26.7381 17.6442 26.8588 17.3002 27.0827 17.026C27.3067 16.7518 27.6196 16.5649 27.9672 16.4977C28.0084 16.4925 28.05 16.4925 28.0912 16.4977C28.6666 16.4977 29.3462 16.453 30.0753 16.4133L31.2013 16.3637C31.6561 16.3424 32.1022 16.4928 32.4513 16.7849C32.8004 17.0771 33.027 17.4897 33.0862 17.9411C33.108 18.1177 33.0932 18.2969 33.0429 18.4675C32.9925 18.6382 32.9077 18.7967 32.7936 18.9332L32.7341 18.9927C32.3672 19.3031 31.905 19.4782 31.4245 19.4887L28.0565 19.4739ZM28.0962 18.4818H31.4146C31.6487 18.4737 31.8743 18.3921 32.0595 18.2487C32.0991 18.1869 32.115 18.1129 32.1041 18.0403C32.0777 17.8351 31.9749 17.6474 31.8164 17.5145C31.6573 17.3812 31.4532 17.3138 31.246 17.326L30.1299 17.3756C29.366 17.4153 28.6418 17.45 28.0714 17.46C27.9602 17.4881 27.8612 17.5517 27.7896 17.6413C27.7179 17.7308 27.6775 17.8414 27.6745 17.956C27.67 18.0785 27.7081 18.1988 27.7822 18.2965C27.8564 18.3942 27.962 18.4631 28.0813 18.4917L28.0962 18.4818Z" fill="#1A1A34"/>
<path d="M43.6238 30.5303H51.5156V15.7386L43.6238 15.7386V30.5303Z" fill="#FF007F"/>
<path d="M51.5109 31.275H43.619C43.4217 31.275 43.2325 31.1966 43.0929 31.057C42.9534 30.9175 42.875 30.7282 42.875 30.5309V15.7343C42.875 15.5369 42.9534 15.3477 43.0929 15.2082C43.2325 15.0686 43.4217 14.9902 43.619 14.9902H51.5109C51.7082 14.9902 51.8975 15.0686 52.037 15.2082C52.1766 15.3477 52.255 15.5369 52.255 15.7343V30.521C52.2563 30.6195 52.238 30.7173 52.2012 30.8088C52.1644 30.9002 52.1098 30.9834 52.0406 31.0535C51.9713 31.1237 51.8889 31.1794 51.798 31.2174C51.707 31.2554 51.6095 31.275 51.5109 31.275ZM44.3631 29.7869H50.7669V16.4882H44.373L44.3631 29.7869Z" fill="#FF007F"/>
</g>
</svg>
