<svg width="183" height="183" viewBox="0 0 183 183" fill="none" xmlns="http://www.w3.org/2000/svg">
<rect width="183" height="183" rx="15" fill="white"/>
<path  d="M85.0661 143H88.1461V127.6H85.0881V138.116L78.5101 127.6H75.3641V143H78.4221V132.572L85.0661 143ZM90.1457 137.28C90.1457 140.756 92.7417 143.286 96.3277 143.286C99.9357 143.286 102.532 140.756 102.532 137.28C102.532 133.804 99.8477 131.208 96.3277 131.208C92.8297 131.208 90.1457 133.782 90.1457 137.28ZM93.1817 137.28C93.1817 135.3 94.5017 133.892 96.3277 133.892C98.1537 133.892 99.4957 135.322 99.4957 137.28C99.4957 139.238 98.1537 140.602 96.3277 140.602C94.5237 140.602 93.1817 139.238 93.1817 137.28Z" fill="black"/>
<g  clip-path="url(#clip0_9836_12482)">
<path d="M60.5438 88.3295H69.6838C70.6061 88.2994 71.5162 88.1099 72.3738 87.7695C73.1149 88.0481 73.7249 88.5939 74.0838 89.2995C74.2074 89.7547 74.2247 90.2321 74.1346 90.695C74.0444 91.158 73.8492 91.594 73.5639 91.9695C73.1439 92.6795 72.7038 93.3795 72.2938 94.0495C70.7338 96.5595 69.3738 98.7295 69.3738 100.69C69.3738 106.32 72.0738 107.3 73.6838 107.39C76.4038 107.52 76.5838 105.14 76.6838 103.86C76.6371 103.226 76.7687 102.592 77.0639 102.03C77.8683 101.263 78.7236 100.551 79.6238 99.8995C82.2972 97.9906 84.7137 95.7455 86.8139 93.2195C88.5989 90.7448 90.6329 88.4596 92.8839 86.3995H96.5538V88.2695C96.5538 88.5347 96.6592 88.7891 96.8467 88.9766C97.0343 89.1642 97.2886 89.2695 97.5538 89.2695H111.384C111.649 89.2695 111.903 89.1642 112.091 88.9766C112.278 88.7891 112.384 88.5347 112.384 88.2695V61.0195C112.384 60.7543 112.278 60.4999 112.091 60.3124C111.903 60.1249 111.649 60.0195 111.384 60.0195H97.6038C97.3386 60.0195 97.0843 60.1249 96.8967 60.3124C96.7092 60.4999 96.6038 60.7543 96.6038 61.0195V64.4795C94.9338 64.5895 91.2538 64.4795 89.2538 62.1695C87.4538 60.0795 83.0138 59.5195 77.2538 59.5195C75.4738 59.5195 73.5738 59.5695 71.5838 59.6495H71.3438L69.2038 59.7495C67.6738 59.8195 66.2738 59.8895 65.0838 59.9195C64.0441 59.979 63.0684 60.4416 62.3644 61.2091C61.6604 61.9766 61.2835 62.9885 61.3138 64.0295C61.3124 64.9775 61.6333 65.8979 62.2238 66.6395C61.5619 67.0484 61.0187 67.6237 60.6485 68.308C60.2783 68.9923 60.0939 69.7617 60.1138 70.5395C60.1119 71.498 60.3975 72.4351 60.9338 73.2295C60.1741 73.585 59.5321 74.1506 59.0838 74.8595C58.6467 75.5755 58.4213 76.4007 58.4338 77.2395C58.4341 78.1451 58.7058 79.0298 59.2138 79.7795C58.1942 80.0717 57.316 80.7255 56.7437 81.6186C56.1714 82.5117 55.9443 83.5827 56.105 84.6312C56.2656 85.6797 56.803 86.6336 57.6164 87.3144C58.4298 87.9952 59.4635 88.3561 60.5238 88.3295H60.5438ZM98.6438 62.0595H110.394V87.2395H98.6438V62.0595ZM75.5138 61.5895C80.7238 61.4895 86.1539 61.7795 87.6339 63.5095C90.1838 66.5095 94.4838 66.6595 96.5639 66.5095V84.2795H92.7138C90.9038 84.2795 85.2038 91.8695 85.1438 91.9495C83.1534 94.314 80.8719 96.4174 78.3538 98.2095C77.3609 98.9339 76.4218 99.7293 75.5438 100.59C74.8811 101.49 74.5555 102.594 74.6238 103.71C74.5438 105.3 74.4538 105.31 73.8438 105.27C71.9138 105.16 71.5038 102.7 71.5038 100.65C71.9465 98.629 72.8347 96.7329 74.1038 95.0995C74.5238 94.4195 74.9638 93.7195 75.3938 92.9795C75.8568 92.3376 76.1608 91.5949 76.2807 90.8126C76.4007 90.0303 76.3332 89.2307 76.0838 88.4795C75.7013 87.6016 75.0592 86.8618 74.2439 86.3595C74.8212 85.5775 75.0787 84.6048 74.9638 83.6395C74.6926 82.5022 74.0782 81.4758 73.2038 80.6995C73.4984 80.5196 73.7674 80.301 74.0038 80.0495C74.3787 79.6319 74.6614 79.14 74.8337 78.6059C75.006 78.0718 75.0639 77.5075 75.0038 76.9495C74.7709 75.8162 74.2153 74.7743 73.4038 73.9495C73.624 73.801 73.8255 73.6264 74.0038 73.4295C74.3842 72.9972 74.6697 72.49 74.8419 71.9405C75.0142 71.3911 75.0693 70.8116 75.0038 70.2395C74.8346 69.316 74.4623 68.4416 73.9138 67.6795C74.5217 67.4775 75.0734 67.1349 75.5238 66.6795C75.8687 66.2937 76.1287 65.8397 76.2872 65.3471C76.4457 64.8545 76.499 64.3341 76.4438 63.8195C76.3238 63.0159 76.0229 62.25 75.5639 61.5795L75.5138 61.5895ZM65.0838 61.9795C66.2838 61.9795 67.7138 61.8895 69.2638 61.8095L71.5138 61.7095C72.1812 61.6809 72.8358 61.8979 73.3538 62.3195C73.8666 62.7491 74.1986 63.3561 74.2838 64.0195C74.3146 64.2422 74.2976 64.4689 74.2338 64.6844C74.17 64.9 74.0609 65.0995 73.9138 65.2695C73.3547 65.747 72.6489 66.0187 71.9138 66.0395H65.1738C64.6845 65.9707 64.2364 65.7273 63.9122 65.3543C63.588 64.9813 63.4095 64.5037 63.4095 64.0095C63.4095 63.5153 63.588 63.0377 63.9122 62.6647C64.2364 62.2917 64.6845 62.0484 65.1738 61.9795H65.0838ZM63.8438 68.2295L70.3738 68.1195C72.3738 67.9595 72.7938 70.5295 72.8038 70.5295C72.8378 70.8018 72.8154 71.0781 72.7379 71.3413C72.6605 71.6045 72.5298 71.849 72.3538 72.0595C71.889 72.488 71.294 72.7486 70.6638 72.7995C70.505 72.773 70.3447 72.7563 70.1838 72.7495H69.9038L65.1738 72.8095H63.9238C62.9838 72.8095 62.1938 71.7595 62.1938 70.5195C62.1363 69.9942 62.278 69.4663 62.591 69.0404C62.9039 68.6145 63.3653 68.3216 63.8838 68.2195L63.8438 68.2295ZM62.4738 74.9395H65.2638H70.5238C70.607 74.9467 70.6907 74.9467 70.7738 74.9395C71.2999 75.1175 71.7716 75.4274 72.1438 75.8395C72.5072 76.2575 72.7523 76.765 72.8538 77.3095C72.8862 77.5639 72.8656 77.8223 72.7933 78.0684C72.7211 78.3145 72.5987 78.543 72.4338 78.7395C71.8424 79.2589 71.0903 79.559 70.3038 79.5895C70.1038 79.5895 69.9038 79.5695 69.7038 79.5295H69.4038L63.7438 79.5895H62.5738C62.0234 79.508 61.5206 79.2315 61.157 78.8102C60.7935 78.3889 60.5935 77.851 60.5935 77.2945C60.5935 76.7381 60.7935 76.2002 61.157 75.7789C61.5206 75.3576 62.0234 75.081 62.5738 74.9995L62.4738 74.9395ZM60.4738 81.6595H63.8138H70.4438C71.0308 81.7885 71.5701 82.0786 72.0011 82.4973C72.4321 82.916 72.7379 83.4466 72.8839 84.0295C72.9138 84.2583 72.8944 84.4909 72.8272 84.7117C72.7599 84.9324 72.6463 85.1362 72.4939 85.3095C72.3068 85.5061 72.0868 85.6686 71.8438 85.7895C71.168 86.0987 70.4368 86.2688 69.6938 86.2895H60.5438C59.9121 86.3076 59.2984 86.078 58.8338 85.6495C58.6063 85.4375 58.4228 85.1826 58.2941 84.8994C58.1654 84.6162 58.094 84.3104 58.0838 83.9995C58.0996 83.3788 58.3593 82.7894 58.8066 82.3588C59.254 81.9283 59.853 81.6914 60.4738 81.6995V81.6595Z" fill="#1A1A34"/>
<path d="M73.9516 108.39H73.6816C72.0916 108.3 68.4116 107.39 68.4116 100.69C68.4116 98.46 69.8016 96.21 71.4116 93.61L71.4716 93.5201C71.8816 92.8501 72.3116 92.1701 72.7316 91.4601L72.7916 91.36C72.9746 91.1213 73.1035 90.8456 73.1691 90.552C73.2347 90.2584 73.2355 89.954 73.1715 89.66C72.9704 89.3187 72.68 89.0387 72.3316 88.85C71.4837 89.1401 70.5972 89.3019 69.7016 89.33H60.5516C59.3452 89.3702 58.1607 89.0013 57.1906 88.2832C56.2204 87.5651 55.5216 86.5401 55.2076 85.3746C54.8936 84.2091 54.983 82.9717 55.4612 81.8635C55.9394 80.7552 56.7783 79.8413 57.8416 79.2701C57.5856 78.6342 57.4532 77.9555 57.4516 77.2701C57.4348 76.2467 57.7125 75.2401 58.2516 74.3701C58.6005 73.7933 59.0592 73.2905 59.6015 72.89C59.274 72.1572 59.1069 71.3627 59.1116 70.56C59.0953 69.7838 59.2447 69.013 59.5499 68.2991C59.8552 67.5852 60.3091 66.9446 60.8816 66.42C60.5079 65.6858 60.3126 64.8739 60.3116 64.05C60.2836 62.7539 60.7602 61.4976 61.6408 60.5461C62.5214 59.5946 63.7371 59.0223 65.0315 58.95C66.2315 58.95 67.6316 58.8401 69.1516 58.7701L71.3016 58.6801H71.6015C73.7715 58.5901 75.6016 58.55 77.2516 58.55C84.3516 58.55 88.1616 59.45 89.9716 61.55C91.3916 63.21 93.9716 63.55 95.5616 63.55V61.08C95.5616 60.5496 95.7723 60.0409 96.1473 59.6658C96.5224 59.2908 97.0311 59.08 97.5616 59.08H111.392C111.922 59.08 112.431 59.2908 112.806 59.6658C113.181 60.0409 113.392 60.5496 113.392 61.08V88.33C113.392 88.8605 113.181 89.3692 112.806 89.7443C112.431 90.1193 111.922 90.33 111.392 90.33H97.6016C97.0711 90.33 96.5624 90.1193 96.1873 89.7443C95.8123 89.3692 95.6016 88.8605 95.6016 88.33V87.4601H93.2816C91.1928 89.4065 89.3004 91.5535 87.6316 93.8701C85.4658 96.4801 82.9718 98.7993 80.2115 100.77C79.4021 101.365 78.6275 102.006 77.8916 102.69C77.7304 103.054 77.6617 103.453 77.6916 103.85V103.97C77.5216 106.89 76.2716 108.39 73.9516 108.39ZM74.4316 92.48C74.0116 93.19 73.5916 93.87 73.1816 94.48L73.1216 94.57C71.6716 96.92 70.4116 98.94 70.4116 100.57C70.4116 103.09 70.9915 106.12 73.7815 106.27C75.1115 106.34 75.5716 105.72 75.6916 103.74C75.6452 102.942 75.8182 102.147 76.1916 101.44C76.2435 101.343 76.311 101.255 76.3916 101.18C77.2429 100.427 78.1414 99.7288 79.0816 99.09C81.6866 97.2318 84.0395 95.0436 86.0816 92.58C87.8954 90.0709 89.9594 87.7523 92.2416 85.66C92.4309 85.4966 92.6715 85.4046 92.9216 85.4001H96.5916C96.8568 85.4001 97.1111 85.5054 97.2987 85.6929C97.4862 85.8805 97.5916 86.1348 97.5916 86.4001V88.2701H111.462V60.98H97.5916V64.4601C97.592 64.7152 97.4949 64.9609 97.3202 65.1468C97.1454 65.3327 96.9062 65.4447 96.6516 65.4601C94.5616 65.5901 90.7216 65.41 88.4816 62.81C86.7016 60.74 81.2316 60.5 77.2815 60.5C75.6915 60.5 73.8516 60.5 71.6616 60.63H71.4615L69.2815 60.73C67.7415 60.8 66.2816 60.8701 65.1416 60.9001C64.3688 60.9514 63.6459 61.2996 63.124 61.8718C62.6022 62.444 62.3218 63.1958 62.3416 63.97C62.348 64.694 62.5903 65.3961 63.0315 65.97C63.1185 66.0803 63.1812 66.2076 63.2157 66.3438C63.2501 66.4799 63.2555 66.6217 63.2316 66.76C63.2074 66.8995 63.1538 67.0322 63.0745 67.1494C62.9953 67.2666 62.892 67.3657 62.7716 67.44C62.2451 67.7509 61.8111 68.1964 61.514 68.7307C61.217 69.265 61.0677 69.8689 61.0816 70.48C61.0728 71.2464 61.2997 71.9969 61.7316 72.63C61.8103 72.7515 61.8634 72.8878 61.8875 73.0305C61.9115 73.1733 61.9061 73.3195 61.8716 73.4601C61.8332 73.5994 61.765 73.7288 61.6718 73.8393C61.5785 73.9498 61.4625 74.0387 61.3316 74.1C60.7497 74.3796 60.2604 74.8203 59.9218 75.3699C59.5832 75.9194 59.4096 76.5547 59.4215 77.2C59.4176 77.9131 59.6303 78.6106 60.0315 79.2C60.1217 79.3315 60.1792 79.4827 60.1991 79.6408C60.219 79.799 60.2008 79.9597 60.146 80.1094C60.0912 80.2591 60.0014 80.3936 59.8841 80.5016C59.7667 80.6095 59.6253 80.6878 59.4716 80.73C58.895 80.8773 58.3692 81.1782 57.9501 81.6007C57.531 82.0231 57.2344 82.5514 57.0918 83.1291C56.9491 83.7068 56.9659 84.3124 57.1402 84.8813C57.3145 85.4503 57.6398 85.9614 58.0816 86.36C58.4032 86.6837 58.7869 86.9391 59.2096 87.1109C59.6323 87.2828 60.0853 87.3675 60.5416 87.36H69.6816C70.4778 87.3351 71.2633 87.1692 72.0016 86.8701C72.2332 86.7807 72.4899 86.7807 72.7216 86.8701C73.7059 87.2307 74.5217 87.9432 75.0116 88.8701C75.0437 88.9333 75.0672 89.0006 75.0816 89.07C75.2299 89.6513 75.2486 90.2581 75.1363 90.8474C75.0239 91.4367 74.7834 91.9941 74.4316 92.48ZM74.0816 106.32H73.7815C72.5616 106.25 70.5016 105.43 70.5016 100.7C70.4921 100.627 70.4921 100.553 70.5016 100.48C70.9796 98.3372 71.9179 96.3241 73.2516 94.58L73.3515 94.42C73.7415 93.81 74.1316 93.18 74.5116 92.53C74.8934 92.0067 75.1452 91.4 75.2461 90.7601C75.347 90.1202 75.294 89.4654 75.0916 88.85C74.7902 88.1916 74.2992 87.638 73.6816 87.26C73.5634 87.1879 73.4614 87.0919 73.3823 86.9783C73.3031 86.8647 73.2483 86.7359 73.2216 86.6C73.1948 86.4653 73.1961 86.3265 73.2253 86.1924C73.2546 86.0582 73.3112 85.9314 73.3916 85.82C73.8083 85.2601 74.0009 84.5646 73.9316 83.8701C73.7111 82.9503 73.2199 82.1178 72.5216 81.48C72.406 81.3767 72.316 81.248 72.2587 81.1039C72.2015 80.9599 72.1785 80.8045 72.1916 80.6501C72.2056 80.4956 72.2554 80.3465 72.3369 80.2146C72.4185 80.0827 72.5296 79.9716 72.6616 79.89C72.881 79.7521 73.0825 79.5875 73.2616 79.4001C73.5309 79.0902 73.7316 78.7269 73.8505 78.3339C73.9695 77.9409 74.0039 77.5273 73.9516 77.1201C73.7614 76.2054 73.3057 75.3671 72.6416 74.7101C72.5374 74.6062 72.4573 74.4807 72.4072 74.3424C72.3571 74.2042 72.3381 74.0565 72.3515 73.91C72.3654 73.7643 72.4111 73.6234 72.4854 73.4973C72.5597 73.3711 72.6608 73.2628 72.7815 73.1801C72.9416 73.0698 73.0892 72.9424 73.2216 72.8C73.5031 72.4743 73.7143 72.0938 73.8416 71.6825C73.969 71.2711 74.0098 70.8379 73.9615 70.41C73.8134 69.6556 73.5029 68.9425 73.0516 68.32C72.9601 68.195 72.8989 68.0504 72.8729 67.8977C72.8469 67.745 72.8567 67.5883 72.9016 67.44C72.947 67.2908 73.0268 67.1544 73.1345 67.0415C73.2421 66.9286 73.3747 66.8425 73.5216 66.79C73.9869 66.6248 74.4078 66.3545 74.7516 66C74.9962 65.7204 75.1795 65.3926 75.2897 65.0378C75.4 64.683 75.4347 64.3091 75.3916 63.94C75.2989 63.3006 75.0593 62.6913 74.6916 62.16C74.5929 62.0143 74.5345 61.845 74.5222 61.6694C74.5099 61.4938 74.5442 61.3181 74.6216 61.16C74.7044 61 74.829 60.8653 74.9822 60.7702C75.1353 60.6752 75.3113 60.6233 75.4916 60.6201C82.9416 60.4701 86.9216 61.18 88.3916 62.88C90.6216 65.49 94.3916 65.69 96.5116 65.58C96.6468 65.5726 96.7821 65.5927 96.9093 65.6391C97.0365 65.6855 97.1529 65.7573 97.2516 65.85C97.3503 65.9441 97.4287 66.0574 97.482 66.183C97.5353 66.3085 97.5624 66.4437 97.5616 66.58V84.35C97.5616 84.6153 97.4562 84.8696 97.2687 85.0572C97.0811 85.2447 96.8268 85.35 96.5616 85.35H92.7116C91.7116 85.55 87.9816 89.85 85.9516 92.61C83.9017 95.0574 81.5496 97.2348 78.9516 99.09C78.0255 99.7695 77.1468 100.511 76.3216 101.31C75.8305 102.014 75.591 102.863 75.6416 103.72V103.83C75.5816 104.94 75.5216 105.58 75.0416 106.01C74.7707 106.228 74.4288 106.339 74.0816 106.32ZM72.5315 100.8C72.5315 101.8 72.6816 103.8 73.6216 104.24C73.6216 104.1 73.6216 103.94 73.6216 103.75C73.5548 102.423 73.9467 101.113 74.7316 100.04C74.7627 99.9923 74.7997 99.9487 74.8416 99.91C75.7568 99.0287 76.7361 98.2165 77.7716 97.48C80.2181 95.731 82.4383 93.6854 84.3816 91.39C84.3816 91.39 90.1616 83.39 92.7116 83.39H95.5616V67.57C93.0316 67.57 89.3016 66.98 86.8716 64.16C86.3516 63.55 84.3816 62.57 77.2016 62.57H77.0816C77.2009 62.9357 77.2912 63.3102 77.3515 63.69C77.4262 64.3489 77.3616 65.0161 77.1617 65.6484C76.9619 66.2806 76.6313 66.8638 76.1916 67.36C75.89 67.6584 75.5544 67.9202 75.1916 68.14C75.5083 68.7708 75.7306 69.4447 75.8515 70.14C75.9458 70.853 75.8886 71.5778 75.6835 72.2671C75.4784 72.9563 75.1302 73.5946 74.6616 74.14C75.2456 74.9453 75.6512 75.8657 75.8515 76.84C75.9517 77.5539 75.8963 78.2809 75.6892 78.9713C75.482 79.6617 75.1281 80.2992 74.6516 80.84L74.5716 80.92C75.198 81.6665 75.6552 82.5399 75.9116 83.48C75.9164 83.5199 75.9164 83.5602 75.9116 83.6C76.0218 84.474 75.8832 85.3614 75.5116 86.16C76.1344 86.7113 76.6263 87.3945 76.9516 88.16C77.2739 89.0674 77.3731 90.039 77.2409 90.9929C77.1086 91.9467 76.7487 92.8546 76.1916 93.64C75.8416 94.24 75.4416 94.88 75.0516 95.51L74.9316 95.7101L74.8716 95.8C73.7319 97.2773 72.9236 98.9826 72.5016 100.8H72.5315ZM110.422 88.2401H98.6416C98.3763 88.2401 98.122 88.1347 97.9344 87.9471C97.7469 87.7596 97.6416 87.5053 97.6416 87.2401V62.06C97.6416 61.7948 97.7469 61.5405 97.9344 61.3529C98.122 61.1654 98.3763 61.06 98.6416 61.06H110.392C110.657 61.06 110.911 61.1654 111.099 61.3529C111.286 61.5405 111.392 61.7948 111.392 62.06V87.2401C111.392 87.5053 111.286 87.7596 111.099 87.9471C110.911 88.1347 110.657 88.2401 110.392 88.2401H110.422ZM99.6716 86.2401H109.422V63.06H99.6716V86.2401ZM60.4615 87.2401C59.797 87.2633 59.1412 87.084 58.5809 86.726C58.0206 86.368 57.5823 85.8481 57.3242 85.2354C57.0661 84.6226 57.0003 83.9458 57.1355 83.2948C57.2708 82.6438 57.6007 82.0493 58.0816 81.59C58.3908 81.2823 58.7596 81.0412 59.1655 80.8812C59.5713 80.7213 60.0056 80.646 60.4416 80.66H63.7716H70.3216C70.4239 80.6401 70.5292 80.6401 70.6316 80.66C71.3836 80.8439 72.0735 81.2234 72.6316 81.76C73.1981 82.3047 73.6001 82.9978 73.7916 83.76C73.7964 83.7999 73.7964 83.8402 73.7916 83.88C73.8408 84.2516 73.8101 84.6294 73.7015 84.9882C73.5928 85.3469 73.4087 85.6783 73.1616 85.9601C72.8961 86.2335 72.589 86.463 72.2516 86.64L72.1516 86.69C71.3581 87.0595 70.4966 87.2604 69.6216 87.28H60.4316L60.4615 87.2401ZM60.4615 82.64C60.2821 82.6308 60.1026 82.6589 59.9346 82.7226C59.7665 82.7862 59.6135 82.884 59.4851 83.0098C59.3568 83.1355 59.2559 83.2866 59.1888 83.4533C59.1218 83.62 59.09 83.7988 59.0956 83.9785C59.1011 84.1581 59.1438 84.3346 59.2211 84.4969C59.2983 84.6592 59.4083 84.8037 59.5442 84.9213C59.68 85.0389 59.8388 85.127 60.0105 85.1802C60.1822 85.2333 60.363 85.2503 60.5416 85.23H69.7016C70.2805 85.2103 70.8505 85.0814 71.3816 84.85C71.5188 84.7808 71.6438 84.6896 71.7516 84.58C71.8414 84.4632 71.8842 84.3169 71.8716 84.17C71.7708 83.7887 71.5666 83.4426 71.2815 83.17C71.0002 82.9049 70.6561 82.7157 70.2815 82.6201H70.1416H60.4116H60.3616L60.4615 82.64ZM62.6015 80.51H62.4716C61.9455 80.4389 61.4437 80.2442 61.0074 79.9417C60.5711 79.6393 60.2127 79.2377 59.9615 78.7701C59.7152 78.3077 59.5818 77.7936 59.5722 77.2699C59.5626 76.7461 59.6771 76.2275 59.9063 75.7564C60.1354 75.2854 60.4728 74.8753 60.8909 74.5596C61.3089 74.2439 61.7958 74.0316 62.3116 73.94H62.5315H65.3216H70.7316C70.8705 73.9153 71.0126 73.9153 71.1516 73.94C71.8494 74.1699 72.4739 74.5805 72.9615 75.13C73.4444 75.6799 73.7692 76.3503 73.9016 77.07C73.9631 77.4722 73.9378 77.8828 73.8274 78.2744C73.717 78.6659 73.5241 79.0293 73.2616 79.34L73.1616 79.44C72.3978 80.1106 71.4271 80.4989 70.4116 80.54H70.2115C70.0501 80.5081 69.8861 80.4914 69.7216 80.4901L62.6015 80.51ZM62.6715 78.51H63.7815L69.7815 78.45L70.4215 78.5C70.9226 78.4641 71.4007 78.2757 71.7916 77.9601C71.9142 77.7856 71.9677 77.5717 71.9416 77.36C71.8659 77.0103 71.7005 76.6864 71.4615 76.42C71.2571 76.184 71.0003 75.999 70.7115 75.88H70.6015H62.6015C62.4022 75.9149 62.214 75.9965 62.0524 76.1182C61.8907 76.2399 61.7602 76.3982 61.6715 76.58C61.5771 76.767 61.5288 76.9738 61.5307 77.1832C61.5327 77.3927 61.5848 77.5985 61.6828 77.7837C61.7807 77.9688 61.9216 78.1277 62.0937 78.2471C62.2657 78.3666 62.4639 78.443 62.6715 78.47V78.51ZM63.9516 73.79C63.1603 73.7213 62.4286 73.3417 61.9168 72.7343C61.4051 72.127 61.155 71.3415 61.2216 70.55C61.1577 69.7836 61.3783 69.0204 61.8413 68.4062C62.3042 67.792 62.9771 67.3697 63.7316 67.22H63.9016L70.4316 67.11C72.0516 66.98 73.4316 68.18 73.8816 70.25V70.39C73.9339 70.7989 73.9014 71.2141 73.7861 71.6098C73.6708 72.0056 73.4752 72.3733 73.2115 72.69L73.1216 72.79C72.488 73.3707 71.6783 73.7228 70.8216 73.79C70.7418 73.7997 70.6613 73.7997 70.5816 73.79C70.4584 73.7802 70.3347 73.7802 70.2115 73.79H63.9516ZM64.0315 69.2C63.7774 69.2714 63.5562 69.4295 63.4065 69.6468C63.2567 69.8642 63.1877 70.1271 63.2115 70.39C63.217 70.4265 63.217 70.4636 63.2115 70.5C63.2115 71.25 63.6516 71.79 63.9416 71.79H65.2815L70.2815 71.73H70.7815C71.1304 71.6893 71.4585 71.5427 71.7216 71.31C71.8608 71.1194 71.9281 70.8856 71.9116 70.6501C71.7816 70.1301 71.3916 68.98 70.5516 69.06H70.4215L64.0315 69.2ZM65.2016 67.0201H65.0816C64.3783 66.8986 63.7399 66.5343 63.2775 65.9908C62.8151 65.4472 62.558 64.7587 62.5509 64.045C62.5437 63.3314 62.7871 62.6379 63.2385 62.0852C63.6899 61.5325 64.3209 61.1556 65.0216 61.0201C65.1046 61.0096 65.1885 61.0096 65.2716 61.0201C66.4316 61.0201 67.8016 60.93 69.2716 60.85L71.5416 60.75C72.4583 60.7071 73.3577 61.0102 74.0615 61.5992C74.7653 62.1882 75.2222 63.0201 75.3416 63.9301C75.3854 64.2861 75.3556 64.6472 75.2541 64.9913C75.1526 65.3353 74.9816 65.6548 74.7516 65.9301L74.6316 66.05C73.892 66.6759 72.9601 67.0289 71.9916 67.05L65.2016 67.0201ZM65.2815 65.0201H71.9716C72.4435 65.0037 72.8983 64.8392 73.2716 64.55C73.3515 64.4256 73.3835 64.2763 73.3616 64.13C73.3082 63.7164 73.1012 63.338 72.7815 63.07C72.4607 62.8013 72.0493 62.6653 71.6316 62.69L69.3816 62.79C67.8416 62.87 66.3816 62.9401 65.2316 62.9601C65.0074 63.0167 64.8079 63.145 64.6635 63.3256C64.519 63.5061 64.4376 63.7289 64.4316 63.9601C64.4224 64.2071 64.4991 64.4496 64.6486 64.6465C64.7981 64.8434 65.0112 64.9825 65.2516 65.04L65.2815 65.0201Z" fill="#1A1A34"/>
<path d="M96.5744 89.3096H112.484V59.4896H96.5744V89.3096Z" fill="#FF007F"/>
<path d="M112.472 90.8105H96.5625C96.1647 90.8105 95.7831 90.6524 95.5018 90.3711C95.2205 90.0898 95.0625 89.7083 95.0625 89.3105V59.4805C95.0625 59.0826 95.2205 58.7011 95.5018 58.4198C95.7831 58.1385 96.1647 57.9805 96.5625 57.9805H112.472C112.87 57.9805 113.252 58.1385 113.533 58.4198C113.814 58.7011 113.972 59.0826 113.972 59.4805V89.2905C113.975 89.4891 113.938 89.6863 113.864 89.8706C113.79 90.0549 113.68 90.2227 113.54 90.3641C113.401 90.5055 113.234 90.6178 113.051 90.6944C112.868 90.771 112.671 90.8105 112.472 90.8105ZM98.0625 87.8105H110.972V61.0005H98.0825L98.0625 87.8105Z" fill="#FF007F"/>
</g>
<defs>
<clipPath id="clip0_9836_12482">
<rect width="58.98" height="50.4" fill="white" transform="translate(55 58)"/>
</clipPath>
</defs>
</svg>
