<svg width="120" height="50" viewBox="0 0 120 50" fill="none" xmlns="http://www.w3.org/2000/svg">
<rect width="120" height="50" rx="25" fill="white"/>
<path d="M67.552 31H69.792V25.88L73.232 19.8H70.688L68.672 23.816L66.656 19.8H64.112L67.552 25.88V31ZM73.2754 26.84C73.2754 29.352 74.9874 31.208 77.6754 31.208C79.7554 31.208 80.8754 29.96 81.1954 29.368L79.7394 28.264C79.4994 28.616 78.8434 29.288 77.7074 29.288C76.4754 29.288 75.5794 28.488 75.5314 27.368H81.4194C81.4354 27.208 81.4354 27.048 81.4354 26.888C81.4354 24.152 79.9634 22.424 77.3714 22.424C74.9874 22.424 73.2754 24.312 73.2754 26.84ZM75.5954 25.928C75.6914 24.968 76.3634 24.232 77.4034 24.232C78.4114 24.232 79.1474 24.904 79.1954 25.928H75.5954ZM85.2209 31.208C87.0289 31.208 88.4369 30.184 88.4369 28.552C88.4369 25.56 84.4689 26.2 84.4689 24.872C84.4689 24.456 84.8209 24.2 85.3329 24.2C86.1169 24.2 86.5809 24.68 86.8369 25L88.2929 23.912C87.8929 23.256 87.0129 22.424 85.4289 22.424C83.7169 22.424 82.3889 23.352 82.3889 24.904C82.3889 27.88 86.3409 27.384 86.3409 28.664C86.3409 29.144 85.9409 29.416 85.3169 29.416C84.3729 29.416 83.8129 28.984 83.3969 28.504L82.1009 29.656C82.5489 30.376 83.5729 31.208 85.2209 31.208Z" fill="black"/>
<path d="M26.6213 18.9554H30.9425C31.3785 18.9704 31.8088 19.0643 32.2143 19.2332C32.5646 19.095 32.853 18.8243 33.0227 18.4743C33.0811 18.2485 33.0894 18.0117 33.0467 17.7821C33.0041 17.5524 32.9118 17.3362 32.7769 17.1499C32.5783 16.7977 32.3703 16.4505 32.1765 16.1181C31.4389 14.8731 30.7959 13.7967 30.7959 12.8245C30.7959 10.0318 32.0725 9.5457 32.8336 9.50106C34.1196 9.43658 34.2047 10.6171 34.252 11.2521C34.2299 11.5663 34.2921 11.8808 34.4316 12.1598C34.812 12.5401 35.2163 12.8931 35.6419 13.2163C36.9059 14.1632 38.0483 15.2769 39.0412 16.5298C39.8852 17.7574 40.8468 18.8909 41.911 19.9128H43.6461V18.9852C43.6461 18.8536 43.6959 18.7275 43.7846 18.6344C43.8733 18.5414 43.9935 18.4892 44.1189 18.4892H50.6575C50.7829 18.4892 50.9031 18.5414 50.9918 18.6344C51.0804 18.7275 51.1303 18.8536 51.1303 18.9852V32.502C51.1303 32.6336 51.0804 32.7598 50.9918 32.8528C50.9031 32.9458 50.7829 32.9981 50.6575 32.9981H44.1425C44.0172 32.9981 43.8969 32.9458 43.8082 32.8528C43.7196 32.7598 43.6698 32.6336 43.6698 32.502V30.7858C42.8802 30.7312 41.1404 30.7858 40.1948 31.9316C39.3438 32.9683 37.2447 33.2461 34.5215 33.2461C33.6799 33.2461 32.7816 33.2213 31.8408 33.1816H31.7273L30.7156 33.132C29.9922 33.0973 29.3303 33.0626 28.7677 33.0477C28.2761 33.0182 27.8149 32.7887 27.482 32.408C27.1492 32.0273 26.971 31.5254 26.9853 31.009C26.9847 30.5388 27.1364 30.0822 27.4156 29.7144C27.1026 29.5115 26.8458 29.2262 26.6708 28.8867C26.4957 28.5473 26.4086 28.1656 26.418 27.7798C26.4171 27.3044 26.5521 26.8396 26.8057 26.4455C26.4465 26.2692 26.143 25.9886 25.931 25.637C25.7244 25.2818 25.6178 24.8725 25.6237 24.4564C25.6238 24.0072 25.7523 23.5684 25.9925 23.1965C25.5104 23.0516 25.0952 22.7273 24.8247 22.2843C24.5541 21.8413 24.4467 21.31 24.5227 20.7899C24.5986 20.2698 24.8527 19.7966 25.2372 19.459C25.6218 19.1213 26.1105 18.9423 26.6118 18.9554H26.6213ZM44.6342 31.9862H50.1894V19.4961H44.6342V31.9862ZM33.6988 32.2193C36.162 32.2689 38.7292 32.1251 39.4289 31.2669C40.6345 29.7788 42.6675 29.7044 43.6509 29.7788V20.9644H41.8306C40.9749 20.9644 38.2801 17.1995 38.2517 17.1598C37.3106 15.9869 36.232 14.9436 35.0415 14.0546C34.5721 13.6953 34.1281 13.3008 33.713 12.8741C33.3997 12.4276 33.2457 11.8799 33.278 11.3265C33.2402 10.5378 33.1977 10.5328 32.9093 10.5526C31.9968 10.6072 31.803 11.8274 31.803 12.8443C32.0122 13.8465 32.4322 14.7871 33.0322 15.5973C33.2308 15.9346 33.4388 16.2818 33.6421 16.6489C33.861 16.9673 34.0047 17.3357 34.0614 17.7237C34.1181 18.1118 34.0862 18.5084 33.9683 18.881C33.7875 19.3165 33.4839 19.6835 33.0984 19.9326C33.3713 20.3205 33.4931 20.803 33.4388 21.2818C33.3105 21.846 33.0201 22.3551 32.6067 22.7401C32.7459 22.8294 32.8732 22.9378 32.9849 23.0626C33.1621 23.2697 33.2958 23.5137 33.3773 23.7786C33.4587 24.0436 33.4861 24.3235 33.4577 24.6003C33.3476 25.1624 33.0849 25.6792 32.7013 26.0884C32.8054 26.162 32.9006 26.2486 32.9849 26.3463C33.1647 26.5607 33.2997 26.8123 33.3812 27.0849C33.4626 27.3574 33.4887 27.6449 33.4577 27.9286C33.3777 28.3867 33.2016 28.8205 32.9424 29.1985C33.2298 29.2987 33.4906 29.4686 33.7035 29.6945C33.8666 29.8859 33.9895 30.1111 34.0644 30.3554C34.1394 30.5998 34.1646 30.8579 34.1385 31.1132C34.0817 31.5118 33.9395 31.8917 33.7225 32.2243L33.6988 32.2193ZM28.7677 32.0259C29.3351 32.0259 30.0111 32.0705 30.7439 32.1102L31.8077 32.1598C32.1232 32.174 32.4327 32.0663 32.6776 31.8572C32.92 31.6441 33.077 31.343 33.1173 31.014C33.1319 30.9035 33.1238 30.7911 33.0936 30.6841C33.0635 30.5772 33.0119 30.4783 32.9424 30.3939C32.678 30.1571 32.3443 30.0223 31.9968 30.012H28.8103C28.5789 30.0461 28.3671 30.1668 28.2138 30.3519C28.0605 30.5369 27.9761 30.7738 27.9761 31.0189C27.9761 31.2641 28.0605 31.5009 28.2138 31.686C28.3671 31.871 28.5789 31.9917 28.8103 32.0259H28.7677ZM28.1815 28.9257L31.2687 28.9802C32.2143 29.0596 32.4129 27.7848 32.4176 27.7848C32.4336 27.6497 32.423 27.5127 32.3864 27.3821C32.3498 27.2516 32.288 27.1303 32.2048 27.0259C31.9851 26.8133 31.7038 26.6841 31.4058 26.6588C31.3307 26.672 31.255 26.6802 31.1789 26.6836H31.0465L28.8103 26.6538H28.2193C27.7749 26.6538 27.4014 27.1747 27.4014 27.7897C27.3742 28.0503 27.4412 28.3122 27.5891 28.5234C27.7371 28.7347 27.9552 28.88 28.2004 28.9306L28.1815 28.9257ZM27.5338 25.5973H28.8528H31.3396C31.379 25.5937 31.4185 25.5937 31.4578 25.5973C31.7066 25.509 31.9295 25.3553 32.1055 25.1509C32.2773 24.9435 32.3932 24.6918 32.4412 24.4217C32.4565 24.2955 32.4468 24.1673 32.4126 24.0453C32.3784 23.9232 32.3206 23.8098 32.2427 23.7124C31.963 23.4548 31.6075 23.3059 31.2356 23.2908C31.1411 23.2908 31.0465 23.3007 30.952 23.3205H30.8101L28.1342 23.2908H27.581C27.3208 23.3312 27.0831 23.4683 26.9112 23.6773C26.7393 23.8863 26.6448 24.1531 26.6448 24.4291C26.6448 24.7051 26.7393 24.972 26.9112 25.1809C27.0831 25.3899 27.3208 25.5271 27.581 25.5675L27.5338 25.5973ZM26.5882 22.264H28.1673H31.3018C31.5793 22.2 31.8343 22.0561 32.0381 21.8484C32.2419 21.6407 32.3864 21.3775 32.4554 21.0884C32.4695 20.9749 32.4604 20.8595 32.4286 20.75C32.3968 20.6405 32.3431 20.5394 32.271 20.4534C32.1826 20.3559 32.0786 20.2753 31.9637 20.2153C31.6442 20.062 31.2985 19.9776 30.9472 19.9673H26.6213C26.3226 19.9583 26.0325 20.0723 25.8128 20.2848C25.7052 20.39 25.6185 20.5164 25.5577 20.6569C25.4968 20.7973 25.463 20.949 25.4582 21.1032C25.4657 21.4111 25.5885 21.7035 25.8 21.9171C26.0115 22.1306 26.2947 22.2481 26.5882 22.2441V22.264Z" fill="#1A1A34"/>
<path d="M32.9563 9.00532H32.8286C32.0769 9.04996 30.3371 9.50136 30.3371 12.8248C30.3371 13.9309 30.9943 15.047 31.7554 16.3367L31.7838 16.3813C31.9776 16.7137 32.1809 17.051 32.3795 17.4031L32.4079 17.4527C32.4944 17.5712 32.5553 17.7079 32.5864 17.8536C32.6174 17.9992 32.6178 18.1502 32.5875 18.296C32.4924 18.4653 32.3551 18.6042 32.1904 18.6978C31.7895 18.5539 31.3704 18.4737 30.947 18.4597H26.621C26.0507 18.4398 25.4907 18.6228 25.032 18.979C24.5733 19.3351 24.2429 19.8436 24.0945 20.4217C23.9461 20.9998 23.9883 21.6136 24.2144 22.1633C24.4405 22.7131 24.8371 23.1664 25.3398 23.4498C25.2188 23.7651 25.1562 24.1018 25.1554 24.4418C25.1475 24.9494 25.2788 25.4488 25.5336 25.8803C25.6986 26.1664 25.9155 26.4158 26.1719 26.6144C26.017 26.978 25.938 27.372 25.9402 27.7702C25.9325 28.1553 26.0032 28.5376 26.1475 28.8917C26.2918 29.2458 26.5064 29.5636 26.7771 29.8238C26.6004 30.188 26.5081 30.5907 26.5076 30.9994C26.4944 31.6423 26.7197 32.2655 27.136 32.7374C27.5523 33.2094 28.1271 33.4933 28.7391 33.5291C29.3064 33.5291 29.9683 33.5837 30.6869 33.6184L31.7034 33.6631H31.8453C32.8712 33.7077 33.7364 33.7275 34.5165 33.7275C37.8732 33.7275 39.6745 33.2811 40.5302 32.2394C41.2016 31.416 42.4214 31.2474 43.1731 31.2474V32.4726C43.1731 32.7357 43.2727 32.988 43.45 33.1741C43.6274 33.3601 43.8679 33.4646 44.1187 33.4646H50.6572C50.908 33.4646 51.1485 33.3601 51.3258 33.1741C51.5032 32.988 51.6028 32.7357 51.6028 32.4726V18.9557C51.6028 18.6926 51.5032 18.4403 51.3258 18.2542C51.1485 18.0682 50.908 17.9637 50.6572 17.9637H44.1376C43.8868 17.9637 43.6463 18.0682 43.469 18.2542C43.2916 18.4403 43.192 18.6926 43.192 18.9557V19.3873H42.0952C41.1076 18.4218 40.2129 17.3568 39.4239 16.2077C38.4 14.913 37.2209 13.7626 35.9159 12.7851C35.5332 12.4899 35.167 12.1719 34.8191 11.8327C34.7429 11.652 34.7104 11.4543 34.7245 11.2573V11.1978C34.6441 9.74937 34.0531 9.00532 32.9563 9.00532ZM33.1832 16.8972C32.9847 16.545 32.7861 16.2077 32.5923 15.9051L32.5639 15.8605C31.8784 14.6948 31.2827 13.6928 31.2827 12.8843C31.2827 11.6343 31.5569 10.1313 32.8759 10.0569C33.5047 10.0222 33.7222 10.3297 33.7789 11.3119C33.757 11.7077 33.8388 12.1022 34.0153 12.4527C34.0399 12.5009 34.0718 12.5445 34.1099 12.5817C34.5124 12.9553 34.9372 13.3016 35.3817 13.6184C36.6133 14.5401 37.7257 15.6256 38.6911 16.8476C39.5487 18.0922 40.5245 19.2423 41.6035 20.2801C41.693 20.3612 41.8067 20.4068 41.9249 20.4091H43.6601C43.7854 20.4091 43.9057 20.3568 43.9944 20.2638C44.083 20.1708 44.1328 20.0446 44.1328 19.9131V18.9855H50.6903V32.5222H44.1328V30.796C44.1331 30.6694 44.0872 30.5476 44.0045 30.4554C43.9219 30.3631 43.8088 30.3076 43.6884 30.3C42.7003 30.2355 40.8848 30.3248 39.8258 31.6145C38.9843 32.6412 36.3981 32.7603 34.5307 32.7603C33.7789 32.7603 32.909 32.7603 31.8736 32.6958H31.7791L30.7484 32.6462C30.0203 32.6115 29.3301 32.5767 28.7911 32.5619C28.4258 32.5364 28.084 32.3637 27.8372 32.0798C27.5905 31.796 27.458 31.4231 27.4673 31.0391C27.4704 30.68 27.5849 30.3317 27.7935 30.047C27.8346 29.9923 27.8643 29.9291 27.8806 29.8616C27.8969 29.7941 27.8994 29.7237 27.8881 29.6551C27.8766 29.586 27.8513 29.5201 27.8139 29.462C27.7764 29.4038 27.7275 29.3547 27.6706 29.3178C27.4217 29.1636 27.2165 28.9426 27.0761 28.6776C26.9356 28.4126 26.8651 28.113 26.8716 27.8099C26.8675 27.4298 26.9748 27.0575 27.1789 26.7434C27.2162 26.6832 27.2412 26.6156 27.2526 26.5448C27.264 26.4739 27.2615 26.4014 27.2451 26.3317C27.2269 26.2626 27.1947 26.1984 27.1507 26.1436C27.1066 26.0888 27.0517 26.0447 26.9898 26.0143C26.7147 25.8756 26.4834 25.657 26.3233 25.3844C26.1632 25.1118 26.0811 24.7967 26.0868 24.4766C26.0849 24.1228 26.1855 23.7769 26.3752 23.4845C26.4178 23.4193 26.445 23.3443 26.4544 23.2658C26.4638 23.1874 26.4552 23.1077 26.4293 23.0334C26.4034 22.9591 26.3609 22.8924 26.3055 22.8389C26.25 22.7853 26.1831 22.7465 26.1104 22.7256C25.8378 22.6525 25.5893 22.5033 25.3911 22.2937C25.193 22.0841 25.0527 21.8221 24.9853 21.5356C24.9179 21.249 24.9258 20.9486 25.0082 20.6664C25.0906 20.3842 25.2444 20.1307 25.4533 19.9329C25.6053 19.7724 25.7867 19.6457 25.9866 19.5604C26.1864 19.4752 26.4006 19.4332 26.6163 19.4369H30.9375C31.314 19.4492 31.6853 19.5315 32.0344 19.6799C32.1439 19.7243 32.2652 19.7243 32.3748 19.6799C32.8401 19.501 33.2259 19.1476 33.4574 18.6879C33.4726 18.6565 33.4837 18.6231 33.4905 18.5887C33.5607 18.3003 33.5695 17.9993 33.5164 17.707C33.4633 17.4147 33.3496 17.1382 33.1832 16.8972V16.8972ZM33.0178 10.0321H32.8759C32.2991 10.0668 31.3252 10.4736 31.3252 12.8198C31.3207 12.856 31.3207 12.8927 31.3252 12.9289C31.5512 13.9918 31.9948 14.9904 32.6253 15.8555L32.6726 15.9349C32.857 16.2375 33.0414 16.55 33.2211 16.8724C33.4016 17.132 33.5206 17.4329 33.5683 17.7503C33.616 18.0678 33.591 18.3925 33.4953 18.6978C33.3528 19.0244 33.1207 19.299 32.8286 19.4865C32.7728 19.5223 32.7246 19.5699 32.6871 19.6262C32.6497 19.6826 32.6238 19.7465 32.6112 19.8139C32.5985 19.8807 32.5991 19.9495 32.613 20.0161C32.6268 20.0826 32.6535 20.1455 32.6915 20.2008C32.8886 20.4785 32.9796 20.8235 32.9468 21.168C32.8426 21.6242 32.6104 22.0372 32.2802 22.3535C32.2256 22.4048 32.183 22.4686 32.156 22.5401C32.1289 22.6115 32.118 22.6886 32.1242 22.7652C32.1308 22.8418 32.1544 22.9158 32.1929 22.9812C32.2315 23.0466 32.284 23.1018 32.3464 23.1422C32.4502 23.2106 32.5454 23.2923 32.6301 23.3853C32.7574 23.539 32.8523 23.7192 32.9085 23.9141C32.9648 24.109 32.981 24.3142 32.9563 24.5162C32.8664 24.9699 32.651 25.3858 32.337 25.7117C32.2877 25.7632 32.2499 25.8254 32.2262 25.894C32.2025 25.9626 32.1935 26.0358 32.1998 26.1085C32.2064 26.1808 32.228 26.2507 32.2631 26.3133C32.2983 26.3758 32.3461 26.4295 32.4031 26.4706C32.4788 26.5253 32.5486 26.5885 32.6112 26.6591C32.7443 26.8207 32.8441 27.0094 32.9043 27.2134C32.9645 27.4175 32.9838 27.6324 32.961 27.8446C32.891 28.2188 32.7442 28.5726 32.5308 28.8813C32.4876 28.9433 32.4586 29.0151 32.4463 29.0908C32.434 29.1666 32.4387 29.2443 32.4599 29.3178C32.4814 29.3918 32.5191 29.4595 32.57 29.5155C32.6209 29.5715 32.6836 29.6142 32.753 29.6402C32.973 29.7222 33.172 29.8563 33.3345 30.0321C33.4502 30.1708 33.5369 30.3334 33.589 30.5094C33.6411 30.6854 33.6575 30.8709 33.6371 31.0539C33.5933 31.3711 33.48 31.6734 33.3062 31.9369C33.2595 32.0092 33.2319 32.0931 33.2261 32.1802C33.2203 32.2673 33.2365 32.3545 33.2731 32.4329C33.3122 32.5123 33.3712 32.5791 33.4436 32.6263C33.516 32.6734 33.5992 32.6991 33.6844 32.7007C37.2066 32.7752 39.0883 32.423 39.7833 31.5797C40.8376 30.2851 42.6199 30.1859 43.6222 30.2404C43.6862 30.2441 43.7501 30.2342 43.8103 30.2111C43.8704 30.1881 43.9255 30.1525 43.9721 30.1065C44.0188 30.0598 44.0558 30.0036 44.0811 29.9414C44.1063 29.8791 44.1191 29.8121 44.1187 29.7444V20.9299C44.1187 20.7984 44.0688 20.6722 43.9802 20.5792C43.8915 20.4861 43.7713 20.4339 43.6459 20.4339H41.8257C41.3529 20.3347 39.5894 18.2017 38.6297 16.8327C37.6605 15.6187 36.5485 14.5387 35.3202 13.6184C34.8824 13.2814 34.467 12.9135 34.0768 12.5172C33.8446 12.168 33.7314 11.7469 33.7553 11.3218V11.2672C33.7269 10.7166 33.6986 10.3992 33.4716 10.1859C33.3436 10.0776 33.1819 10.0229 33.0178 10.0321V10.0321ZM32.2849 12.7702C32.2849 12.2742 32.3559 11.2821 32.8003 11.0638C32.8003 11.1333 32.8003 11.2127 32.8003 11.3069C32.7687 11.9654 32.954 12.6151 33.3251 13.1472C33.3398 13.1709 33.3573 13.1925 33.3771 13.2117C33.8098 13.6488 34.2728 14.0517 34.7623 14.417C35.919 15.2846 36.9687 16.2993 37.8874 17.4379C37.8874 17.4379 40.6201 21.4061 41.8257 21.4061H43.1731V29.2533C41.977 29.2533 40.2135 29.546 39.0646 30.9448C38.8188 31.2474 37.8874 31.7335 34.4928 31.7335H34.4361C34.4925 31.5521 34.5352 31.3664 34.5637 31.1779C34.5991 30.8511 34.5685 30.5202 34.474 30.2065C34.3795 29.8929 34.2233 29.6037 34.0153 29.3575C33.8728 29.2095 33.7141 29.0796 33.5425 28.9706C33.6923 28.6577 33.7974 28.3235 33.8546 27.9785C33.8992 27.6249 33.8721 27.2654 33.7751 26.9235C33.6782 26.5816 33.5135 26.265 33.292 25.9944C33.5681 25.595 33.7599 25.1384 33.8546 24.6551C33.9019 24.301 33.8757 23.9404 33.7778 23.5979C33.6799 23.2555 33.5125 22.9393 33.2872 22.671L33.2494 22.6313C33.5456 22.2611 33.7618 21.8278 33.8829 21.3615C33.8852 21.3417 33.8852 21.3217 33.8829 21.302C33.9351 20.8684 33.8695 20.4283 33.6938 20.0321C33.9883 19.7587 34.2209 19.4198 34.3746 19.04C34.527 18.59 34.574 18.108 34.5114 17.6349C34.4489 17.1618 34.2787 16.7114 34.0153 16.3218C33.8499 16.0242 33.6607 15.7067 33.4764 15.3942L33.4196 15.295L33.3913 15.2504C32.8524 14.5176 32.4703 13.6717 32.2708 12.7702H32.2849ZM50.1986 19.0004H44.6293C44.5039 19.0004 44.3836 19.0526 44.2949 19.1456C44.2063 19.2387 44.1565 19.3648 44.1565 19.4964V31.9865C44.1565 32.118 44.2063 32.2442 44.2949 32.3372C44.3836 32.4302 44.5039 32.4825 44.6293 32.4825H50.1844C50.3098 32.4825 50.4301 32.4302 50.5187 32.3372C50.6074 32.2442 50.6572 32.118 50.6572 31.9865V19.4964C50.6572 19.3648 50.6074 19.2387 50.5187 19.1456C50.4301 19.0526 50.3098 19.0004 50.1844 19.0004H50.1986ZM45.1162 19.9924H49.7258V31.4904H45.1162V19.9924ZM26.5785 19.4964C26.2643 19.4849 25.9542 19.5738 25.6893 19.7514C25.4244 19.929 25.2172 20.1868 25.0952 20.4908C24.9732 20.7947 24.9421 21.1304 25.006 21.4533C25.0699 21.7763 25.2259 22.0712 25.4533 22.299C25.5995 22.4516 25.7738 22.5712 25.9657 22.6506C26.1576 22.7299 26.3629 22.7672 26.569 22.7603H28.1434H31.2401C31.2885 22.7702 31.3383 22.7702 31.3867 22.7603C31.7422 22.6691 32.0684 22.4808 32.3322 22.2146C32.6001 21.9445 32.7901 21.6007 32.8807 21.2226C32.8829 21.2028 32.8829 21.1828 32.8807 21.1631C32.9039 20.9787 32.8894 20.7913 32.8381 20.6134C32.7867 20.4355 32.6997 20.2711 32.5828 20.1313C32.4573 19.9957 32.3121 19.8818 32.1526 19.794L32.1053 19.7692C31.7302 19.5859 31.3229 19.4863 30.9092 19.4766H26.5643L26.5785 19.4964ZM26.5785 21.7781C26.4936 21.7827 26.4088 21.7688 26.3293 21.7372C26.2499 21.7056 26.1775 21.6571 26.1168 21.5947C26.0562 21.5324 26.0085 21.4574 25.9768 21.3747C25.9451 21.292 25.93 21.2033 25.9327 21.1142C25.9353 21.0251 25.9555 20.9376 25.992 20.8571C26.0285 20.7766 26.0805 20.7049 26.1448 20.6466C26.209 20.5882 26.2841 20.5445 26.3652 20.5182C26.4464 20.4918 26.5319 20.4834 26.6163 20.4934H30.947C31.2207 20.5032 31.4902 20.5672 31.7413 20.6819V20.6819C31.8061 20.7163 31.8652 20.7615 31.9162 20.8158C31.9586 20.8738 31.9789 20.9464 31.9729 21.0192C31.9253 21.2084 31.8287 21.38 31.694 21.5152C31.561 21.6468 31.3983 21.7406 31.2212 21.7881H31.155H26.5548H26.5312L26.5785 21.7781ZM27.5902 22.8347H27.5288C27.28 22.87 27.0428 22.9666 26.8366 23.1166C26.6303 23.2666 26.4608 23.4658 26.3421 23.6978C26.2256 23.9271 26.1626 24.1821 26.158 24.4419C26.1535 24.7017 26.2076 24.959 26.3159 25.1926C26.4243 25.4263 26.5838 25.6297 26.7815 25.7863C26.9791 25.9429 27.2093 26.0482 27.4531 26.0936H27.5571H28.8762H31.4339C31.4996 26.1059 31.5668 26.1059 31.6325 26.0936C31.9624 25.9796 32.2577 25.7759 32.4882 25.5033C32.7165 25.2306 32.8701 24.898 32.9327 24.541C32.9617 24.3416 32.9498 24.1379 32.8976 23.9437C32.8454 23.7494 32.7542 23.5692 32.6301 23.4151L32.5828 23.3654C32.2217 23.0328 31.7628 22.8402 31.2827 22.8198H31.1881C31.1118 22.8357 31.0342 22.844 30.9564 22.8446L27.5902 22.8347ZM27.6233 23.8267H28.1481L30.9848 23.8565L31.2874 23.8317C31.5243 23.8495 31.7503 23.943 31.9351 24.0996C31.9931 24.1861 32.0184 24.2922 32.006 24.3972C31.9702 24.5706 31.892 24.7313 31.7791 24.8635C31.6824 24.9806 31.561 25.0723 31.4245 25.1313H31.3725H27.5902C27.496 25.114 27.407 25.0735 27.3306 25.0132C27.2542 24.9528 27.1925 24.8743 27.1505 24.7841C27.1059 24.6914 27.0831 24.5888 27.084 24.4849C27.0849 24.381 27.1095 24.2789 27.1559 24.1871C27.2022 24.0952 27.2688 24.0164 27.3501 23.9572C27.4315 23.8979 27.5251 23.86 27.6233 23.8466V23.8267ZM28.2285 26.168C27.8544 26.2021 27.5085 26.3904 27.2665 26.6917C27.0246 26.9929 26.9063 27.3826 26.9378 27.7752C26.9076 28.1554 27.0119 28.5339 27.2308 28.8386C27.4497 29.1432 27.7678 29.3527 28.1245 29.427H28.2048L31.2921 29.4815C32.058 29.546 32.7105 28.9508 32.9232 27.924V27.8545C32.9479 27.6517 32.9326 27.4458 32.8781 27.2495C32.8236 27.0532 32.7311 26.8708 32.6064 26.7137L32.5639 26.6641C32.2644 26.376 31.8816 26.2014 31.4765 26.168C31.4388 26.1632 31.4007 26.1632 31.363 26.168C31.3048 26.1729 31.2463 26.1729 31.1881 26.168H28.2285ZM28.2663 28.4448C28.1461 28.4094 28.0416 28.331 27.9708 28.2232C27.9 28.1154 27.8674 27.9849 27.8786 27.8545C27.8812 27.8364 27.8812 27.8181 27.8786 27.8C27.8786 27.4279 28.0867 27.1601 28.2238 27.1601H28.8573L31.2212 27.1898H31.4576C31.6225 27.2101 31.7776 27.2828 31.902 27.3982C31.9678 27.4928 31.9997 27.6087 31.9918 27.7256C31.9304 27.9835 31.746 28.5539 31.3488 28.5143H31.2874L28.2663 28.4448ZM28.8195 29.5261H28.7627C28.4303 29.5864 28.1284 29.7671 27.9098 30.0367C27.6912 30.3063 27.5696 30.6479 27.5663 31.0018C27.5629 31.3558 27.6779 31.6998 27.8914 31.974C28.1048 32.2482 28.4031 32.4351 28.7344 32.5023C28.7736 32.5075 28.8133 32.5075 28.8526 32.5023C29.401 32.5023 30.0487 32.547 30.7437 32.5867L31.8169 32.6363C32.2503 32.6576 32.6755 32.5072 33.0083 32.2151C33.341 31.9229 33.557 31.5103 33.6135 31.0589C33.6342 30.8823 33.6201 30.7031 33.5721 30.5325C33.5241 30.3618 33.4433 30.2033 33.3345 30.0668L33.2778 30.0073C32.9282 29.6969 32.4876 29.5218 32.0296 29.5113L28.8195 29.5261ZM28.8573 30.5182H32.0202C32.2433 30.5263 32.4583 30.6079 32.6348 30.7513C32.6726 30.8131 32.6877 30.8871 32.6774 30.9597C32.6522 31.1649 32.5543 31.3526 32.4031 31.4855C32.2515 31.6188 32.057 31.6862 31.8594 31.674L30.7957 31.6244C30.0676 31.5847 29.3773 31.55 28.8336 31.54C28.7277 31.5119 28.6334 31.4483 28.5651 31.3587C28.4968 31.2692 28.4583 31.1586 28.4554 31.044C28.4511 30.9215 28.4874 30.8012 28.5581 30.7035C28.6287 30.6058 28.7294 30.5369 28.8431 30.5083L28.8573 30.5182Z" fill="#1A1A34"/>
<path d="M43.657 18.4697H51.179V33.2614H43.657V18.4697Z" fill="#FF007F"/>
<path d="M51.1745 17.725H43.6526C43.4645 17.725 43.2841 17.8034 43.1511 17.943C43.0181 18.0825 42.9434 18.2718 42.9434 18.4691V33.2657C42.9434 33.4631 43.0181 33.6523 43.1511 33.7918C43.2841 33.9314 43.4645 34.0098 43.6526 34.0098H51.1745C51.3626 34.0098 51.543 33.9314 51.676 33.7918C51.809 33.6523 51.8837 33.4631 51.8837 33.2657V18.479C51.8849 18.3805 51.8675 18.2827 51.8324 18.1912C51.7974 18.0998 51.7453 18.0166 51.6793 17.9465C51.6134 17.8763 51.5348 17.8206 51.4481 17.7826C51.3614 17.7446 51.2684 17.725 51.1745 17.725ZM44.3617 19.2131H50.4653V32.5118H44.3712L44.3617 19.2131Z" fill="#FF007F"/>
</svg>
