<svg width="183" height="183" viewBox="0 0 183 183" fill="none" xmlns="http://www.w3.org/2000/svg">
<rect width="183" height="183" rx="15" fill="white"/>
<path d="M79.3684 143H82.4484V135.96L87.1784 127.6H83.6804L80.9084 133.122L78.1364 127.6H74.6384L79.3684 135.96V143ZM87.238 137.28C87.238 140.734 89.592 143.286 93.288 143.286C96.148 143.286 97.688 141.57 98.128 140.756L96.126 139.238C95.796 139.722 94.894 140.646 93.332 140.646C91.638 140.646 90.406 139.546 90.34 138.006H98.436C98.458 137.786 98.458 137.566 98.458 137.346C98.458 133.584 96.434 131.208 92.87 131.208C89.592 131.208 87.238 133.804 87.238 137.28ZM90.428 136.026C90.56 134.706 91.484 133.694 92.914 133.694C94.3 133.694 95.312 134.618 95.378 136.026H90.428ZM103.663 143.286C106.149 143.286 108.085 141.878 108.085 139.634C108.085 135.52 102.629 136.4 102.629 134.574C102.629 134.002 103.113 133.65 103.817 133.65C104.895 133.65 105.533 134.31 105.885 134.75L107.887 133.254C107.337 132.352 106.127 131.208 103.949 131.208C101.595 131.208 99.7691 132.484 99.7691 134.618C99.7691 138.71 105.203 138.028 105.203 139.788C105.203 140.448 104.653 140.822 103.795 140.822C102.497 140.822 101.727 140.228 101.155 139.568L99.3731 141.152C99.9891 142.142 101.397 143.286 103.663 143.286Z" fill="black"/>
<path d="M117.429 71.07H108.329C107.406 71.091 106.494 71.2808 105.639 71.63C104.885 71.3565 104.261 70.8107 103.889 70.1C103.768 69.6447 103.752 69.1677 103.842 68.7051C103.932 68.2426 104.126 67.8066 104.409 67.43C104.839 66.72 105.269 66.02 105.689 65.35C107.249 62.84 108.609 60.67 108.609 58.7C108.609 53.08 105.899 52.09 104.289 52.01C101.569 51.88 101.389 54.25 101.289 55.54C101.335 56.1735 101.203 56.8071 100.909 57.37C100.105 58.1368 99.2493 58.8484 98.3491 59.5C95.6757 61.409 93.2592 63.6541 91.1591 66.18C89.3775 68.6545 87.3469 70.9398 85.0991 73H81.4191V71.12C81.4191 70.8548 81.3137 70.6004 81.1262 70.4129C80.9386 70.2254 80.6843 70.12 80.4191 70.12H66.5391C66.2738 70.12 66.0195 70.2254 65.832 70.4129C65.6444 70.6004 65.5391 70.8548 65.5391 71.12V98.38C65.5391 98.6452 65.6444 98.8996 65.832 99.0871C66.0195 99.2747 66.2738 99.38 66.5391 99.38H80.3291C80.5943 99.38 80.8486 99.2747 81.0362 99.0871C81.2237 98.8996 81.3291 98.6452 81.3291 98.38V94.93C83.0091 94.83 86.6791 94.93 88.6891 97.24C90.4791 99.33 94.9291 99.9 100.689 99.9C102.459 99.9 104.369 99.85 106.349 99.76C106.432 99.7698 106.516 99.7698 106.599 99.76L108.729 99.67C110.259 99.59 111.669 99.53 112.849 99.49C113.89 99.4384 114.869 98.9828 115.579 98.22C116.267 97.4422 116.626 96.4274 116.579 95.39C116.578 94.4411 116.261 93.5194 115.679 92.77C116.34 92.362 116.882 91.7883 117.252 91.1059C117.622 90.4235 117.807 89.6561 117.789 88.88C117.789 87.9203 117.5 86.9828 116.959 86.19C117.713 85.8314 118.347 85.2636 118.787 84.5544C119.226 83.8451 119.453 83.0244 119.439 82.19C119.441 81.2841 119.169 80.3989 118.659 79.65C119.575 79.3948 120.385 78.8515 120.968 78.1006C121.552 77.3496 121.878 76.4308 121.899 75.48C121.875 74.2962 121.383 73.1701 120.53 72.3489C119.677 71.5277 118.533 71.0786 117.349 71.1L117.429 71.07ZM79.3291 97.32H67.5791V72.16H79.3291V97.32ZM102.459 97.79C97.2491 97.89 91.8291 97.6 90.3391 95.87C87.7891 92.87 83.4991 92.72 81.4091 92.87V75.08H85.259C87.079 75.08 92.7791 67.49 92.8291 67.41C94.8195 65.0455 97.1009 62.9422 99.619 61.15C100.615 60.4257 101.558 59.6303 102.439 58.77C103.099 57.869 103.421 56.7646 103.349 55.65C103.439 54.06 103.529 54.05 104.129 54.09C106.069 54.19 106.479 56.66 106.479 58.71C106.028 60.7246 105.14 62.6156 103.879 64.25C103.449 64.94 103.009 65.64 102.579 66.38C102.121 67.0245 101.823 67.7684 101.708 68.5506C101.593 69.3329 101.665 70.1312 101.919 70.88C102.298 71.7601 102.941 72.5008 103.759 73C103.181 73.778 102.92 74.7468 103.029 75.71C103.301 76.8497 103.916 77.879 104.789 78.66C104.499 78.8422 104.23 79.0569 103.989 79.3C103.614 79.7177 103.331 80.2095 103.159 80.7436C102.987 81.2777 102.929 81.842 102.989 82.4C103.215 83.5359 103.771 84.5797 104.589 85.4C104.366 85.5484 104.161 85.723 103.979 85.92C103.599 86.3508 103.314 86.8564 103.142 87.4041C102.97 87.9518 102.914 88.5295 102.979 89.1C103.145 90.0262 103.522 90.9019 104.079 91.66C103.472 91.8693 102.918 92.2109 102.459 92.66C102.117 93.0494 101.858 93.5053 101.7 93.9991C101.541 94.4929 101.487 95.0141 101.539 95.53C101.659 96.3336 101.96 97.0996 102.419 97.77L102.459 97.79ZM112.849 97.39C111.649 97.39 110.219 97.49 108.679 97.57L106.419 97.67C105.752 97.701 105.098 97.481 104.585 97.0534C104.072 96.6258 103.738 96.0217 103.649 95.36C103.618 95.1358 103.635 94.9075 103.699 94.6903C103.763 94.4731 103.872 94.2719 104.019 94.1C104.582 93.6296 105.286 93.3619 106.019 93.34H112.789C113.278 93.4089 113.726 93.6522 114.051 94.0252C114.375 94.3982 114.553 94.8758 114.553 95.37C114.553 95.8642 114.375 96.3418 114.051 96.7148C113.726 97.0878 113.278 97.3311 112.789 97.4L112.849 97.39ZM114.089 91.15L107.559 91.26C105.559 91.42 105.149 88.85 105.139 88.85C105.104 88.5785 105.125 88.3025 105.2 88.0393C105.276 87.7762 105.405 87.5313 105.579 87.32C106.048 86.8914 106.646 86.6311 107.279 86.58L107.759 86.63H108.039L112.759 86.56H114.099C115.039 86.56 115.829 87.62 115.829 88.86C115.886 89.3842 115.744 89.9107 115.431 90.335C115.118 90.7592 114.657 91.0502 114.139 91.15H114.089ZM115.459 84.44H112.669H107.159C106.632 84.2699 106.161 83.9609 105.795 83.5456C105.429 83.1303 105.182 82.624 105.079 82.08C105.046 81.8248 105.067 81.5654 105.141 81.3189C105.215 81.0724 105.34 80.8444 105.509 80.65C106.1 80.1293 106.852 79.829 107.639 79.8C107.835 79.8304 108.031 79.8504 108.229 79.86H108.529L114.189 79.79H115.399C115.767 79.8376 116.119 79.9721 116.425 80.1825C116.731 80.3929 116.983 80.6731 117.159 81C117.335 81.3276 117.429 81.6927 117.434 82.0644C117.439 82.4361 117.355 82.8035 117.188 83.1358C117.021 83.4681 116.777 83.7554 116.476 83.9737C116.176 84.192 115.827 84.3348 115.459 84.39V84.44ZM117.459 77.72H114.119H107.529C106.944 77.5892 106.408 77.2983 105.979 76.88C105.549 76.4606 105.241 75.9315 105.089 75.35C105.058 75.1212 105.077 74.8884 105.145 74.6676C105.212 74.4467 105.326 74.2429 105.479 74.07C105.668 73.871 105.892 73.7082 106.139 73.59V73.59C106.812 73.2812 107.539 73.1079 108.279 73.08H117.409C118.041 73.0597 118.656 73.2897 119.119 73.72C119.579 74.1535 119.851 74.7489 119.879 75.38C119.861 76.0016 119.599 76.5911 119.15 77.0213C118.701 77.4516 118.101 77.6881 117.479 77.68L117.459 77.72Z" fill="#1A1A34"/>
<path d="M100.729 100.9C93.619 100.9 89.809 99.9996 88.009 97.8996C86.589 96.2396 84.0091 95.8996 82.4091 95.8996V98.3696C82.4091 98.9001 82.1983 99.4088 81.8233 99.7838C81.4482 100.159 80.9395 100.37 80.4091 100.37H66.5391C66.0086 100.37 65.4999 100.159 65.1248 99.7838C64.7498 99.4088 64.5391 98.9001 64.5391 98.3696V71.1196C64.5391 70.5892 64.7498 70.0805 65.1248 69.7054C65.4999 69.3303 66.0086 69.1196 66.5391 69.1196H80.3291C80.8595 69.1196 81.3682 69.3303 81.7433 69.7054C82.1183 70.0805 82.3291 70.5892 82.3291 71.1196V71.9996H84.619C86.7046 70.053 88.5937 67.906 90.259 65.5896C92.4248 62.9795 94.9188 60.6603 97.6791 58.6896C98.4905 58.0971 99.2652 57.4559 99.9991 56.7696C100.158 56.4045 100.23 56.0074 100.209 55.6096C100.199 55.5703 100.199 55.529 100.209 55.4897C100.369 52.3997 101.719 50.8796 104.209 51.0096C105.789 51.0896 109.479 52.0096 109.479 58.6996C109.479 60.9396 108.079 63.1896 106.479 65.7996L106.419 65.8996C105.999 66.5596 105.579 67.2396 105.169 67.8996L105.099 67.9996C104.917 68.2368 104.788 68.5109 104.723 68.8028C104.657 69.0946 104.656 69.3972 104.719 69.6896C104.923 70.0316 105.212 70.3143 105.559 70.5096C106.406 70.2156 107.293 70.0537 108.189 70.0296H117.359C118.074 70.0126 118.784 70.1393 119.449 70.4021C120.114 70.6649 120.719 71.0586 121.229 71.5596C121.748 72.0556 122.163 72.6494 122.452 73.3067C122.74 73.9641 122.896 74.672 122.909 75.3896C122.883 76.5665 122.484 77.7046 121.769 78.6396C121.306 79.2369 120.724 79.7308 120.059 80.0896C120.511 81.202 120.585 82.4324 120.269 83.5908C119.953 84.7493 119.264 85.7714 118.309 86.4996C118.632 87.234 118.799 88.0274 118.799 88.8296C118.815 89.6052 118.664 90.3752 118.357 91.0876C118.05 91.8 117.594 92.4383 117.019 92.9597C117.392 93.6978 117.587 94.5127 117.589 95.3396C117.617 96.6358 117.14 97.8921 116.26 98.8436C115.379 99.7951 114.163 100.367 112.869 100.44C111.669 100.44 110.269 100.54 108.749 100.62L106.609 100.71H106.309C104.159 100.86 102.329 100.9 100.729 100.9ZM82.3291 93.8996C84.4891 93.8996 87.5991 94.3396 89.5291 96.5796C91.2991 98.6496 96.769 98.8896 100.729 98.8896C102.319 98.8896 104.109 98.8896 106.349 98.7596H106.539L108.719 98.6596C110.259 98.5896 111.719 98.5196 112.859 98.4796C113.242 98.4547 113.617 98.3534 113.96 98.1817C114.304 98.0099 114.609 97.7712 114.859 97.4796C115.124 97.1961 115.329 96.8625 115.463 96.4984C115.597 96.1343 115.657 95.7472 115.639 95.3596C115.638 94.6348 115.395 93.9311 114.949 93.3596C114.862 93.2494 114.799 93.122 114.765 92.9859C114.73 92.8498 114.725 92.708 114.749 92.5696C114.773 92.4302 114.827 92.2975 114.906 92.1803C114.985 92.063 115.089 91.964 115.209 91.8896C115.719 91.5745 116.138 91.1322 116.425 90.6063C116.713 90.0805 116.859 89.4889 116.849 88.8896C116.852 88.1227 116.622 87.373 116.189 86.7397C116.108 86.621 116.054 86.4864 116.03 86.3449C116.006 86.2034 116.012 86.0584 116.049 85.9196C116.087 85.7803 116.156 85.6509 116.249 85.5404C116.342 85.4299 116.458 85.3409 116.589 85.2796C117.171 85.0001 117.66 84.5593 117.999 84.0098C118.337 83.4602 118.511 82.825 118.499 82.1796C118.504 81.4664 118.291 80.7686 117.889 80.1796C117.799 80.0477 117.743 79.8963 117.724 79.738C117.705 79.5797 117.724 79.4191 117.779 79.2696C117.834 79.1194 117.925 78.9847 118.044 78.8768C118.162 78.7689 118.304 78.691 118.459 78.6496C119.164 78.4524 119.787 78.0356 120.239 77.4597C120.759 76.8196 121.014 76.0042 120.951 75.1818C120.888 74.3594 120.511 73.5926 119.899 73.0396C119.577 72.7138 119.192 72.4571 118.767 72.2851C118.342 72.1132 117.887 72.0297 117.429 72.0396H108.329C107.533 72.0656 106.748 72.2315 106.009 72.5296C105.78 72.6165 105.528 72.6165 105.299 72.5296C104.313 72.1715 103.497 71.4583 103.009 70.5296C102.974 70.4632 102.947 70.3927 102.929 70.3196C102.771 69.7278 102.748 69.1082 102.86 68.5061C102.973 67.904 103.218 67.3346 103.579 66.8396C103.999 66.1396 104.419 65.4596 104.829 64.8396L105.739 65.2696L104.889 64.7397C106.349 62.3897 107.609 60.3697 107.609 58.7397C107.609 56.2297 107.019 53.1896 104.239 53.0496C102.909 52.9796 102.439 53.5996 102.329 55.5796C102.371 56.3784 102.194 57.1734 101.819 57.8796C101.768 57.9748 101.704 58.0623 101.629 58.1396C100.775 58.9213 99.8731 59.6493 98.9291 60.3196C96.3263 62.1806 93.9737 64.3685 91.9291 66.8296C90.1209 69.3403 88.0564 71.6561 85.7691 73.7397C85.5872 73.91 85.3482 74.0063 85.0991 74.0096H81.4191C81.1538 74.0096 80.8995 73.9043 80.7119 73.7167C80.5244 73.5292 80.4191 73.2749 80.4191 73.0096V71.1196H66.5491V98.4196H80.4191V94.9296C80.4186 94.6745 80.5157 94.4288 80.6904 94.2429C80.8652 94.057 81.1044 93.9449 81.3591 93.9296C81.6391 93.9196 81.9691 93.9096 82.3291 93.9096V93.8996ZM100.689 98.8196C94.3791 98.8196 90.9291 98.0996 89.5891 96.5296C87.3491 93.9296 83.5891 93.7296 81.4591 93.8396C81.1938 93.8396 80.9395 93.7343 80.752 93.5467C80.5644 93.3592 80.4591 93.1048 80.4591 92.8396V75.0796C80.4591 74.8144 80.5644 74.5601 80.752 74.3725C80.9395 74.185 81.1938 74.0796 81.4591 74.0796H85.3091C86.3091 73.8796 89.9891 69.6396 92.0791 66.8196C94.1258 64.3693 96.4784 62.1916 99.0791 60.3396C100.004 59.6547 100.886 58.9133 101.719 58.1196C102.203 57.4126 102.439 56.565 102.389 55.7097V55.5996C102.449 54.4896 102.509 53.8496 102.999 53.4196C103.171 53.2799 103.37 53.1781 103.584 53.1212C103.797 53.0643 104.021 53.0536 104.239 53.0896C105.449 53.1596 107.519 53.9697 107.519 58.7097C107.529 58.7793 107.529 58.85 107.519 58.9196C107.043 61.0632 106.105 63.0768 104.769 64.8196L104.669 64.9897C104.289 65.5997 103.889 66.2296 103.509 66.8796C103.127 67.4029 102.875 68.0096 102.775 68.6496C102.674 69.2895 102.727 69.9442 102.929 70.5596C103.229 71.2196 103.725 71.7713 104.349 72.1396C104.468 72.2129 104.571 72.3104 104.65 72.4258C104.729 72.5412 104.784 72.672 104.809 72.8096C104.834 72.945 104.831 73.0842 104.801 73.2184C104.77 73.3527 104.711 73.479 104.629 73.5896C104.2 74.1627 104.007 74.8784 104.089 75.5896C104.321 76.5089 104.822 77.3378 105.529 77.9696C105.643 78.0739 105.731 78.2031 105.786 78.3471C105.842 78.4911 105.863 78.646 105.849 78.7996C105.836 78.9532 105.788 79.1017 105.708 79.2335C105.628 79.3654 105.519 79.477 105.389 79.5596C105.169 79.6921 104.967 79.8536 104.789 80.0396C104.518 80.3509 104.316 80.7156 104.195 81.1101C104.075 81.5047 104.039 81.9202 104.089 82.3296C104.288 83.2411 104.742 84.0771 105.399 84.7397C105.503 84.8435 105.583 84.969 105.633 85.1073C105.684 85.2455 105.703 85.3932 105.689 85.5396C105.675 85.6854 105.629 85.8263 105.555 85.9524C105.481 86.0786 105.38 86.1869 105.259 86.2696C105.099 86.3799 104.951 86.5073 104.819 86.6496C104.537 86.9745 104.326 87.3552 104.2 87.767C104.074 88.1787 104.036 88.6123 104.089 89.0396C104.233 89.7954 104.544 90.5095 104.999 91.1296C105.089 91.2555 105.148 91.4005 105.172 91.5532C105.197 91.7059 105.185 91.8621 105.139 92.0096C105.094 92.1588 105.014 92.2953 104.906 92.4082C104.798 92.521 104.666 92.6071 104.519 92.6596C104.052 92.8211 103.63 93.092 103.289 93.4496C103.047 93.7306 102.865 94.0585 102.754 94.413C102.644 94.7674 102.608 95.1407 102.649 95.5096C102.745 96.1498 102.988 96.7589 103.359 97.2896C103.463 97.4388 103.524 97.6134 103.535 97.7946C103.547 97.9758 103.509 98.1568 103.426 98.3182C103.343 98.4796 103.217 98.6152 103.063 98.7106C102.908 98.806 102.731 98.8575 102.549 98.8596L100.689 98.8196ZM82.4091 91.8196C84.9491 91.8196 88.6691 92.3996 91.0991 95.2296C91.6291 95.8396 93.5891 96.8196 100.769 96.8196H100.859C100.74 96.454 100.649 96.0795 100.589 95.6996C100.516 95.0401 100.583 94.3726 100.784 93.7404C100.986 93.1082 101.318 92.5254 101.759 92.0296C102.042 91.7345 102.357 91.4728 102.699 91.2496C102.384 90.6182 102.162 89.9446 102.039 89.2496C101.944 88.5367 102.001 87.8117 102.206 87.1223C102.411 86.433 102.76 85.7948 103.229 85.2496C102.644 84.4464 102.241 83.5249 102.049 82.5496C101.944 81.8357 101.997 81.1074 102.205 80.4163C102.412 79.7251 102.768 79.0879 103.249 78.5496L103.319 78.4696C102.715 77.7013 102.285 76.8107 102.059 75.8596C102.054 75.8198 102.054 75.7795 102.059 75.7397C101.954 74.8658 102.092 73.9797 102.459 73.1796C101.836 72.6284 101.344 71.9451 101.019 71.1796C100.697 70.2722 100.597 69.3006 100.73 68.3468C100.862 67.393 101.222 66.485 101.779 65.6996C102.129 65.0996 102.529 64.4496 102.919 63.8296L103.049 63.6296C103.066 63.5974 103.086 63.5672 103.109 63.5396C104.247 62.059 105.062 60.3554 105.499 58.5396C105.499 57.5396 105.349 55.5396 104.409 55.0996C104.409 55.2396 104.409 55.3996 104.409 55.5896C104.481 56.9176 104.088 58.2293 103.299 59.2996C103.268 59.3474 103.231 59.391 103.189 59.4296C102.276 60.3218 101.3 61.1473 100.269 61.8996C97.8181 63.6432 95.5972 65.6894 93.6591 67.9897C93.6591 67.9897 87.8591 75.9897 85.3191 75.9897H82.4691L82.4091 91.8196ZM106.329 98.6896C105.441 98.6922 104.582 98.3706 103.914 97.7852C103.245 97.1997 102.813 96.3907 102.699 95.5096C102.657 95.1529 102.688 94.7913 102.791 94.4473C102.894 94.1032 103.067 93.7841 103.299 93.5096L103.329 93.3196C104.071 92.6973 105.001 92.3448 105.969 92.3196H112.899C113.601 92.4483 114.235 92.8189 114.692 93.3671C115.149 93.9152 115.399 94.6061 115.399 95.3196C115.399 96.0331 115.149 96.7241 114.692 97.2722C114.235 97.8203 113.601 98.191 112.899 98.3196H112.649C111.489 98.3196 110.119 98.4097 108.649 98.4897L106.389 98.5896L106.329 98.6896ZM104.779 94.8296C104.697 94.9497 104.662 95.0954 104.679 95.2397C104.734 95.658 104.944 96.0403 105.269 96.3096C105.593 96.5732 106.002 96.7084 106.419 96.6896L108.669 96.5896C110.199 96.5096 111.619 96.4396 112.819 96.4096C113.046 96.3608 113.25 96.2343 113.394 96.0518C113.538 95.8693 113.614 95.6422 113.609 95.4096C113.6 95.1717 113.512 94.9437 113.357 94.7623C113.203 94.5809 112.992 94.4566 112.759 94.4096H106.029C105.565 94.4096 105.114 94.5566 104.739 94.8296H104.779ZM79.3291 98.3196H67.5791C67.3138 98.3196 67.0595 98.2143 66.8719 98.0267C66.6844 97.8392 66.5791 97.5849 66.5791 97.3196V72.1596C66.5791 71.8944 66.6844 71.6401 66.8719 71.4525C67.0595 71.265 67.3138 71.1596 67.5791 71.1596H79.3291C79.5943 71.1596 79.8486 71.265 80.0362 71.4525C80.2237 71.6401 80.3291 71.8944 80.3291 72.1596V97.3196C80.3291 97.5849 80.2237 97.8392 80.0362 98.0267C79.8486 98.2143 79.5943 98.3196 79.3291 98.3196ZM68.5791 96.3196H78.3291V73.1596H68.5791V96.3196ZM107.329 92.3196C105.809 92.3196 104.579 91.1396 104.109 89.1696V89.0296C104.057 88.6185 104.09 88.201 104.207 87.8034C104.324 87.4058 104.522 87.0368 104.789 86.7196L104.869 86.6296C105.504 86.0509 106.313 85.6992 107.169 85.6296C107.252 85.6199 107.336 85.6199 107.419 85.6296C107.539 85.6395 107.659 85.6395 107.779 85.6296L114.069 85.5596C114.857 85.6408 115.583 86.0253 116.092 86.6319C116.602 87.2384 116.855 88.0194 116.799 88.8096C116.866 89.5751 116.647 90.3382 116.186 90.9527C115.725 91.5672 115.053 91.9898 114.299 92.1396H114.119L107.599 92.2496L107.329 92.3196ZM106.079 88.7196C106.209 89.2396 106.599 90.3896 107.439 90.3096H107.569L113.979 90.1996C114.234 90.1339 114.458 89.9786 114.608 89.762C114.759 89.5454 114.827 89.282 114.799 89.0196C114.799 89.0196 114.799 88.9496 114.799 88.9096C114.799 88.1596 114.369 87.6096 114.069 87.6096H112.729L107.729 87.6796C107.558 87.6754 107.388 87.6587 107.219 87.6296C106.872 87.6823 106.546 87.8313 106.279 88.0596C106.139 88.2396 106.065 88.4618 106.069 88.6896L106.079 88.7196ZM107.169 85.5396C107.063 85.5426 106.958 85.5257 106.859 85.4897C106.163 85.2682 105.54 84.86 105.059 84.3096C104.575 83.759 104.248 83.0893 104.109 82.3696C104.048 81.9668 104.075 81.5556 104.187 81.1639C104.299 80.7722 104.494 80.4092 104.759 80.0996L104.859 79.9996C105.622 79.3276 106.593 78.9391 107.609 78.8996H107.799C107.961 78.9267 108.125 78.9434 108.289 78.9496L115.409 78.8796H115.539C116.068 78.9438 116.573 79.1346 117.013 79.4358C117.452 79.7371 117.812 80.1399 118.062 80.6101C118.313 81.0803 118.446 81.604 118.45 82.1366C118.455 82.6692 118.331 83.1952 118.089 83.6696C117.857 84.1337 117.518 84.5366 117.101 84.8459C116.684 85.1551 116.201 85.3619 115.689 85.4496H115.489H112.699H107.169V85.5396ZM106.239 81.4496C106.174 81.5342 106.127 81.6307 106.099 81.7337C106.072 81.8367 106.065 81.944 106.079 82.0496C106.157 82.3986 106.322 82.722 106.559 82.9897C106.77 83.2228 107.029 83.4071 107.319 83.5296H107.419H115.369C115.568 83.4948 115.757 83.4131 115.918 83.2915C116.08 83.1698 116.21 83.0115 116.299 82.8296C116.393 82.642 116.441 82.4346 116.439 82.2247C116.437 82.0148 116.385 81.8083 116.287 81.6226C116.19 81.4368 116.049 81.277 115.877 81.1565C115.705 81.036 115.507 80.9582 115.299 80.9296H114.159L108.159 80.9996C107.945 80.9914 107.731 80.9714 107.519 80.9396C107.052 80.9708 106.603 81.1376 106.229 81.4196L106.239 81.4496ZM107.539 78.8196H107.329C106.561 78.6537 105.854 78.2765 105.289 77.7305C104.723 77.1846 104.322 76.4916 104.129 75.7296C104.129 75.7296 104.129 75.6496 104.129 75.6096C104.079 75.2373 104.11 74.8585 104.221 74.4994C104.331 74.1404 104.518 73.8095 104.769 73.5296C105.031 73.2566 105.335 73.027 105.669 72.8496L105.769 72.7996C106.564 72.4318 107.424 72.2277 108.299 72.1996H117.459C118.344 72.1814 119.201 72.5078 119.849 73.1096C120.174 73.4111 120.436 73.774 120.62 74.1774C120.803 74.5808 120.905 75.0166 120.919 75.4597C120.916 75.9017 120.827 76.339 120.655 76.7463C120.483 77.1536 120.232 77.523 119.917 77.8332C119.602 78.1435 119.229 78.3886 118.819 78.5544C118.41 78.7203 117.971 78.8036 117.529 78.7996H114.199H107.529L107.539 78.8196ZM106.089 75.2696C106.196 75.6483 106.399 75.9928 106.679 76.2696C106.96 76.5355 107.304 76.7249 107.679 76.8196H107.809H117.539C117.723 76.8296 117.907 76.8009 118.079 76.7355C118.251 76.67 118.408 76.5693 118.539 76.4396C118.668 76.3184 118.771 76.1729 118.843 76.0116C118.915 75.8503 118.954 75.6763 118.959 75.4996C118.926 75.1533 118.77 74.8304 118.519 74.5896C118.246 74.3411 117.888 74.2084 117.519 74.2196H108.329C107.753 74.2419 107.186 74.3743 106.659 74.6096H106.599C106.463 74.6813 106.339 74.7722 106.229 74.8796C106.14 74.9792 106.087 75.1061 106.079 75.2397L106.089 75.2696Z" fill="#1A1A34"/>
<path d="M81.41 70.0801H65.5V99.9001H81.41V70.0801Z" fill="#FF007F"/>
<path d="M81.41 101.4H65.5C65.1022 101.4 64.7207 101.242 64.4393 100.961C64.158 100.679 64 100.298 64 99.9001V70.0801C64 69.6823 64.158 69.3007 64.4393 69.0194C64.7207 68.7381 65.1022 68.5801 65.5 68.5801H81.41C81.8078 68.5801 82.1894 68.7381 82.4707 69.0194C82.752 69.3007 82.91 69.6823 82.91 70.0801V99.9001C82.91 100.298 82.752 100.679 82.4707 100.961C82.1894 101.242 81.8078 101.4 81.41 101.4V101.4ZM67 98.4001H79.91V71.5801H67V98.4001Z" fill="#FF007F"/>
</svg>
